<?xml version="1.0" encoding="UTF-8"?>
<svg width="714px" height="239px" viewBox="0 0 714 239" version="1.1" xmlns="http://www.w3.org/2000/svg" xmlns:xlink="http://www.w3.org/1999/xlink">
    <title>新建文本文档</title>
    <g id="11月5日" stroke="none" stroke-width="1" fill="none" fill-rule="evenodd">
        <g id="新建文本文档" transform="translate(1.000000, 0.000000)">
            <g id="bottomgroup" transform="translate(324.000000, 0.000000)" fill="#EAEBEC" fill-rule="nonzero">
                <g id="GrayRectGroup6" transform="translate(0.359375, 0.000000)">
                    <rect id="矩形" x="0" y="0" width="388" height="239"></rect>
                </g>
            </g>
            <g id="Link22" transform="translate(192.000000, 115.000000)">
                <line x1="0.5" y1="4.5" x2="127.5" y2="4.5" id="路径" stroke="#888888"></line>
                <g id="编组" transform="translate(122.500000, 0.000000)" fill="#888888">
                    <polygon id="路径" points="0.5 9 6.5 4.5 0.5 0"></polygon>
                </g>
                <line x1="0.5" y1="4.5" x2="127.5" y2="4.5" id="路径" stroke-opacity="0" stroke="#FF0000" stroke-width="15"></line>
            </g>
            <g id="maingroup" transform="translate(0.000000, 19.000000)" fill-rule="nonzero">
                <g id="ShadowBasicRect2" transform="translate(0.000000, 75.500000)">
                    <rect id="矩形" fill-opacity="0.300000012" fill="#000000" x="0" y="1" width="193" height="50"></rect>
                    <rect id="矩形" stroke="#E5E5E5" fill="#FFFFFF" x="0" y="0" width="193" height="50"></rect>
                    <g id="编组" transform="translate(21.000000, 12.000000)">
                        <g id="编组-24" fill="#0052D9">
                            <path d="M28,26.0000729 C27.2897779,25.9957131 26.6351046,25.6150891 26.28,25 L1,25 L1,8 L3,8 L3,23 L26.28,23 C26.7660656,22.1581503 27.7870648,21.7877158 28.6998631,22.1220358 C29.6126615,22.4563558 30.1528813,23.3985996 29.9802345,24.3552416 C29.8075876,25.3118835 28.9720785,26.0058471 28,26.0000729 Z" id="_复合路径_-path"></path>
                            <path d="M27.0120508,3.00018082 L3.73205081,3.00018082 C3.27944513,3.78411685 2.35672894,4.16631841 1.48236191,3.93203247 C0.607994882,3.69774653 0,2.90539218 0,2.00018082 C0,1.09496946 0.607994882,0.302615105 1.48236191,0.0683291662 C2.35672894,-0.165956773 3.27944513,0.216244788 3.73205081,1.00018082 L29.0120508,1.00018082 L29.0120508,18.0001808 L27.0120508,18.0001808 L27.0120508,3.00018082 Z" id="_复合路径_-path"></path>
                            <path d="M15,5.5 C19.1421356,5.5 22.5,8.85786438 22.5,13 L20.4483951,13.0004328 C20.4545466,12.5500225 20.4150009,12.0976079 20.3438187,11.6389542 C20.2930965,11.5940983 20.2436307,11.5538603 20.1949178,11.516736 L20.0505335,11.4132003 L19.6142581,11.1244387 L19.6142581,11.1244387 L19.4577182,11.0053838 L19.2905838,10.8598868 C19.0593318,10.6442519 18.7917686,10.3340388 18.4556575,9.83298207 L18.1695923,9.39126095 L17.7386822,8.71971188 C17.0612689,7.68022328 16.5562278,7.0455517 15.7513618,6.9059639 C15.40049,6.8388955 15.2881408,7.30955274 15.4143142,8.31793563 L15.46875,8.69616318 C13.8654327,8.68979263 12.7272224,8.9425354 12.0541191,9.45439148 C11.3810158,9.96624756 11.0440636,10.6324921 11.0432625,11.453125 C9.9593544,11.3009796 9.32527542,11.5579491 9.14102554,12.2240334 C8.86465073,13.2231598 9.03888702,15.2275352 10.3281212,16.3830452 C11.5689767,17.4951945 12.6422889,18.0616936 14.9995886,18.2173819 L15,20.5 C10.8578644,20.5 7.5,17.1421356 7.5,13 C7.5,8.85786438 10.8578644,5.5 15,5.5 Z M22.4418629,13.9383954 C22.2915363,15.1427397 21.8556587,16.2583823 21.2041259,17.2154274 L22.2085193,18.2197815 C22.3915776,18.4028398 22.3915776,18.6996359 22.2085193,18.8826941 L20.8826941,20.2085193 C20.6996359,20.3915776 20.4028398,20.3915776 20.2197815,20.2085193 L19.2154274,19.2041259 C18.2583823,19.8556587 17.1427397,20.2915363 15.9383954,20.4418629 L15.9389169,18.218938 C18.5493103,17.979714 19.887281,15.6293642 20.1836586,14.6883469 C20.2626511,14.4375407 20.3221637,14.1877471 20.3645983,13.9382427 L22.4418629,13.9383954 Z M10.4723167,12.2273521 C10.4113197,12.5742155 9.76624489,13.1645088 9.58459854,13.1645088 C9.40295219,13.1645088 9.34930801,12.8551464 9.38135147,12.4556618 C9.41339493,12.0561771 9.55713272,11.8256216 10.0329781,11.7753105 C10.4671383,11.734375 10.5333138,11.8804888 10.4723167,12.2273521 Z M13.734375,9.90625 C14.5886905,9.90625 15.28125,10.5988095 15.28125,11.453125 C15.28125,12.3074405 14.5886905,13 13.734375,13 C12.8800595,13 12.1875,12.3074405 12.1875,11.453125 C12.1875,10.5988095 12.8800595,9.90625 13.734375,9.90625 Z M13.171875,10.9375 C12.7317731,10.9375 12.375,11.2942731 12.375,11.734375 C12.375,12.1744769 12.7317731,12.53125 13.171875,12.53125 C13.6119769,12.53125 13.96875,12.1744769 13.96875,11.734375 C13.96875,11.2942731 13.6119769,10.9375 13.171875,10.9375 Z" id="Path"></path>
                        </g>
                        <text id="支持多分支研发流" fill="#444444" font-family="PingFangSC-Regular, PingFang SC" font-size="14" font-weight="normal">
                            <tspan x="41" y="18">支持多分支研发流</tspan>
                        </text>
                    </g>
                </g>
                <g id="RectEndPoint12" transform="translate(458.359375, 0.000000)">
                    <rect id="矩形" fill-opacity="0.300000012" fill="#000000" x="0" y="1" width="120" height="50"></rect>
                    <rect id="矩形" stroke="#E5E5E5" fill="#FFFFFF" x="0" y="0" width="120" height="50"></rect>
                    <g id="编组" transform="translate(32.000000, 15.000000)" fill="#444444" font-family="PingFangSC-Regular, PingFang SC" font-size="14" font-weight="normal">
                        <text id="主干开发">
                            <tspan x="0" y="15">主干开发</tspan>
                        </text>
                    </g>
                </g>
                <g id="RectEndPoint15" transform="translate(458.359375, 75.500000)">
                    <rect id="矩形" fill-opacity="0.300000012" fill="#000000" x="0" y="1" width="120" height="50"></rect>
                    <rect id="矩形" stroke="#E5E5E5" fill="#FFFFFF" x="0" y="0" width="120" height="50"></rect>
                    <g id="编组" transform="translate(32.000000, 15.000000)" fill="#444444" font-family="PingFangSC-Regular, PingFang SC" font-size="14" font-weight="normal">
                        <text id="分支开发">
                            <tspan x="0" y="15">分支开发</tspan>
                        </text>
                    </g>
                </g>
                <g id="RectEndPoint18" transform="translate(458.359375, 150.500000)">
                    <rect id="矩形" fill-opacity="0.300000012" fill="#000000" x="0" y="1" width="120" height="50"></rect>
                    <rect id="矩形" stroke="#E5E5E5" fill="#FFFFFF" x="0" y="0" width="120" height="50"></rect>
                    <g id="编组" transform="translate(35.093750, 15.000000)" fill="#444444" font-family="PingFangSC-Regular, PingFang SC" font-size="14" font-weight="normal">
                        <text id="MR合流">
                            <tspan x="0" y="15">MR合流</tspan>
                        </text>
                    </g>
                </g>
            </g>
        </g>
    </g>
</svg>