<?xml version="1.0" encoding="UTF-8"?>
<svg width="56px" height="56px" viewBox="0 0 56 56" version="1.1" xmlns="http://www.w3.org/2000/svg" xmlns:xlink="http://www.w3.org/1999/xlink">
    <title>icon</title>
    <defs>
        <linearGradient x1="23.7626213%" y1="0%" x2="77.6228811%" y2="91.5267355%" id="linearGradient-1">
            <stop stop-color="#E2EEFF" offset="0%"></stop>
            <stop stop-color="#ABC6EB" offset="100%"></stop>
        </linearGradient>
        <linearGradient x1="11.4904306%" y1="76.4540292%" x2="86.901819%" y2="76.4540292%" id="linearGradient-2">
            <stop stop-color="#349CFF" offset="0%"></stop>
            <stop stop-color="#005EEA" offset="100%"></stop>
        </linearGradient>
        <linearGradient x1="7.45404364%" y1="17.3022866%" x2="65.779323%" y2="66.3786576%" id="linearGradient-3">
            <stop stop-color="#455B79" offset="0%"></stop>
            <stop stop-color="#030D1C" offset="100%"></stop>
        </linearGradient>
    </defs>
    <g id="OA官网" stroke="none" stroke-width="1" fill="none" fill-rule="evenodd">
        <g id="介绍页-代码分析-指定代码库分支" transform="translate(-1085.000000, -1628.000000)">
            <rect fill="#FFFFFF" x="0" y="0" width="1440" height="2525"></rect>
            <g id="特性" transform="translate(0.000000, 1418.000000)">
                <rect id="矩形" fill="#FFFFFF" x="0" y="0" width="1440" height="827"></rect>
                <g id="缓存加速" transform="translate(924.000000, 195.000000)">
                    <rect id="矩形" fill="#D8D8D8" opacity="0" x="0" y="0" width="376" height="252"></rect>
                    <g id="icon" transform="translate(160.000000, 15.000000)">
                        <g id="分组-18" transform="translate(5.000000, 4.000000)">
                            <polygon id="矩形" fill="url(#linearGradient-1)" points="3.2 0 43.2 0 43.2 34.4 28 48 3.2 48"></polygon>
                            <rect id="矩形" fill="url(#linearGradient-2)" x="0" y="7.2" width="46.4" height="22.4"></rect>
                            <g id="General/Icon/Projects/Globe" transform="translate(15.000000, 10.000000)" fill="#FFFFFF">
                                <path d="M8,0 C12.418278,0 16,3.581722 16,8 C16,12.418278 12.418278,16 8,16 C3.581722,16 0,12.418278 0,8 C0,3.581722 3.581722,0 8,0 Z M9.8987952,11.0002806 L6.10153489,11.0002806 C6.43877966,12.295283 7.01808716,13.3819593 7.83691336,14.2684411 L8,14.437 L8.16341672,14.2684411 C8.98224293,13.3819593 9.56155043,12.295283 9.8987952,11.0002806 Z M4.55927939,11.0016687 L2.2327703,11.0010736 C2.9893693,12.452078 4.27749845,13.5818371 5.83891421,14.1321073 C5.24668781,13.2146395 4.8202565,12.1699681 4.55927939,11.0016687 Z M13.7672297,11.0010736 L11.4410507,11.0016687 C11.1800736,12.1699681 10.7536423,13.2146395 10.1606549,14.1321611 C11.7225016,13.5818371 13.0106307,12.452078 13.7672297,11.0010736 Z M4.32139886,6.49988492 L1.67389342,6.50016266 C1.56017514,6.98163245 1.5,7.4837889 1.5,8 C1.5,8.51656909 1.56025863,9.01906402 1.67413008,9.50083898 L4.32149129,9.50105126 C4.27381022,9.01831243 4.25,8.51789741 4.25,8 C4.25,7.48243737 4.27377945,6.98233454 4.32139886,6.49988492 Z M10.1709944,6.49947469 L5.8293357,6.49947469 C5.77647558,6.97661031 5.75,7.47668843 5.75,8 C5.75,8.52367881 5.77651275,9.02409154 5.82944702,9.50152977 L10.1708831,9.50152977 C10.2238173,9.02409154 10.2503301,8.52367881 10.2503301,8 C10.2503301,7.47668843 10.2238545,6.97661031 10.1709944,6.49947469 Z M14.3261066,6.50016266 L11.6789312,6.49988492 C11.7265506,6.98233454 11.7503301,7.48243737 11.7503301,8 C11.7503301,8.51789741 11.7265199,9.01831243 11.6788388,9.50105126 L14.3258699,9.50083898 C14.4397414,9.01906402 14.5,8.51656909 14.5,8 C14.5,7.4837889 14.4398249,6.98163245 14.3261066,6.50016266 Z M5.84036431,1.86677274 L5.77807387,1.8896771 C4.24369511,2.44776119 2.97893375,3.56733001 2.23225121,4.99992214 L4.55889652,5.00004588 C4.81994038,3.83060135 5.24672806,2.78499996 5.84036431,1.86677274 Z M8.19466546,1.76561437 L8,1.562 L8.03033009,1.53033009 C7.1085164,2.45214377 6.4644365,3.60555637 6.10127084,5.00073353 L9.89905924,5.00073353 C9.56615739,3.72182114 8.99720954,2.64605813 8.19466546,1.76561437 L8.19466546,1.76561437 Z M10.1600861,1.86754047 L10.217174,1.95647664 C10.7810994,2.8529236 11.1888523,3.86851289 11.4414336,5.00004588 L13.7677488,4.99992214 C13.0110585,3.54812913 11.7223089,2.4178065 10.1600861,1.86754047 Z" id="Path"></path>
                            </g>
                            <polygon id="路径-23" fill="url(#linearGradient-3)" points="43.2 34.4 28 34.4 28 48"></polygon>
                        </g>
                    </g>
                </g>
            </g>
        </g>
    </g>
</svg>