<?xml version="1.0" encoding="UTF-8"?>
<svg width="1280px" height="1280px" viewBox="0 0 1280 1280" version="1.1" xmlns="http://www.w3.org/2000/svg" xmlns:xlink="http://www.w3.org/1999/xlink">
    <title>logo-1280-2</title>
    <defs>
        <path d="M438.581256,877.511489 C530.160161,877.511489 615.183356,849.431989 685.517374,801.409693 C702.142778,818.355283 718.768182,835.300873 735.393587,852.246464 C750.388169,867.529824 774.933291,867.763925 790.216651,852.769343 C790.243467,852.743034 790.270244,852.716686 790.296984,852.6903 L851.88575,791.912862 C867.125456,776.873914 867.288202,752.328215 852.249254,737.088509 C852.079701,736.916692 851.908546,736.746463 851.735813,736.577843 C834.669808,719.918233 817.603802,703.258623 800.537796,686.599012 C848.878471,616.080429 877.162511,530.722447 877.162511,438.755744 C877.162511,196.437638 680.802995,0 438.581256,0 C196.359517,0 0,196.437638 0,438.755744 C0,681.073851 196.359517,877.511489 438.581256,877.511489 Z" id="path-1"></path>
        <linearGradient x1="80.2290373%" y1="111.133148%" x2="19.7709627%" y2="-11.1331481%" id="linearGradient-3">
            <stop stop-color="#0063FF" offset="0%"></stop>
            <stop stop-color="#00C8DE" offset="100%"></stop>
        </linearGradient>
    </defs>
    <g id="logo-1280-2" stroke="none" stroke-width="1" fill="none" fill-rule="evenodd">
        <g id="Group" transform="translate(190.000000, 200.000000)">
            <mask id="mask-2" fill="white">
                <use xlink:href="#path-1"></use>
            </mask>
            <use id="Oval" fill="#D8D8D8" opacity="0" xlink:href="#path-1"></use>
            <path d="M453.802275,-52.0393619 C733.170897,-52.0393619 959.643912,174.523755 959.643912,454.003523 L821.272285,454.032725 C821.68718,423.642471 819.019999,393.116978 814.219072,362.170515 C810.798085,359.143983 807.461842,356.42903 804.176369,353.924167 L794.43829,346.938364 L765.013461,327.454928 L754.455537,319.422008 L743.183065,309.604985 C727.586144,295.055584 709.540202,274.124762 686.871004,240.317271 L667.577178,210.513293 L638.514204,165.202276 C592.825694,95.0655019 558.76292,52.242697 504.478289,42.824375 C480.813544,38.29911 473.236089,70.0554766 481.745922,138.093475 L485.417377,163.613389 C377.28076,163.183554 300.513539,180.236711 255.115713,214.772861 C209.717888,249.309011 186.99196,294.262117 186.937931,349.632178 C113.833152,339.366566 71.0673456,356.704908 58.640511,401.647203 C40.000259,469.060646 63.5519976,604.417735 138.704831,682.26565 C213.857665,760.113565 303.929507,819.023485 453.802275,819.023485 L453.802275,960.046408 C174.433653,960.046408 -52.0393619,733.483291 -52.0393619,454.003523 C-52.0393619,174.523755 174.433653,-52.0393619 453.802275,-52.0393619 Z M955.722823,517.319297 C945.583961,598.579278 916.185958,673.854344 872.242971,738.428461 L939.984838,806.19463 C952.331303,818.546007 952.331303,838.571547 939.984838,850.922924 L850.563825,940.379513 C838.21736,952.73089 818.199784,952.73089 805.853319,940.379513 L738.1141,872.610695 C673.565663,916.571165 598.320534,945.980863 517.092869,956.123759 L517.092869,812.934319 C686.871004,783.606151 783.427639,631.412997 803.416989,567.920312 C808.744683,550.997819 812.758542,534.14365 815.620564,517.308995 L955.722823,517.319297 Z M148.43018,401.87113 C144.316203,425.274826 100.808775,465.103325 88.5575365,465.103325 C76.3062984,465.103325 72.6882371,444.229906 74.8494257,417.275725 C77.0106144,390.321544 86.7050891,374.765412 118.79874,371.370803 C148.080917,368.608786 152.544157,378.467434 148.43018,401.87113 Z M368.441499,245.260833 C426.061277,245.260833 472.771336,291.989476 472.771336,349.632178 C472.771336,407.27488 426.061277,454.003523 368.441499,454.003523 C310.82172,454.003523 264.111661,407.27488 264.111661,349.632178 C264.111661,291.989476 310.82172,245.260833 368.441499,245.260833 Z M330.503376,314.84173 C300.82046,314.84173 276.757702,338.914061 276.757702,368.608786 C276.757702,398.303512 300.82046,422.375843 330.503376,422.375843 C360.186292,422.375843 384.24905,398.303512 384.24905,368.608786 C384.24905,338.914061 360.186292,314.84173 330.503376,314.84173 Z" id="Path" fill="url(#linearGradient-3)" fill-rule="nonzero" mask="url(#mask-2)"></path>
        </g>
    </g>
</svg>