<?xml version="1.0" encoding="UTF-8"?>
<svg width="36px" height="36px" viewBox="0 0 36 36" version="1.1" xmlns="http://www.w3.org/2000/svg" xmlns:xlink="http://www.w3.org/1999/xlink">
<g>
<path d="M16 5c.15 1.57 1.366 2.912 3.097 3.611 3.207 1.046 5.803 3.585 7.05 6.325.368-.721 1.023-1.202 1.772-1.202 1.15 0 2.081 1.133 2.081 2.532 0 1.398-.932 2.53-2.081 2.53-.35 0-.679-.104-.968-.29-.1 4.54-4.962 7.486-10.95 7.494-5.99-.008-10.853-2.954-10.952-7.494-.289.186-.618.29-.968.29-1.15 0-2.081-1.132-2.081-2.53 0-1.399.932-2.532 2.081-2.532.749 0 1.405.481 1.771 1.202 1.248-2.74 3.844-5.28 7.051-6.325C14.634 7.911 15.85 6.57 16 5zm3.602 9.15c-1.408 0-2.68.52-3.602 1.36-.922-.84-2.194-1.36-3.602-1.36-1.827 0-3.43.876-4.328 2.192-.374.568-.622 1.552-.718 2.197l-.003.019a4.14 4.14 0 00-.034.323l-.004.067a4.248 4.248 0 00-.005.205c0 3.283 3.89 5.576 8.694 5.583 4.804-.007 8.694-2.3 8.694-5.583 0-.069-.002-.137-.005-.205l-.004-.067a4.602 4.602 0 00-.034-.323l-.003-.019c-.096-.645-.344-1.63-.718-2.197-.898-1.316-2.5-2.193-4.328-2.193zm-8.999 2.64c.252 0 .457.25.457.556 0 .306-.205.555-.457.555s-.456-.249-.456-.555c0-.307.204-.555.456-.555zm10.837 0c.252 0 .456.25.456.556 0 .306-.204.555-.456.555s-.456-.249-.456-.555c0-.307.204-.555.456-.555zm7.116-.36c-.097-.364-.53-.519-.968-.346-.437.173-.713.608-.615.973.097.364.53.52.968.346.437-.172.713-.608.615-.972zm-24.144-.346c-.437-.173-.87-.018-.968.347-.097.364.178.8.616.972.437.173.87.018.967-.346.098-.365-.178-.8-.615-.973z" fill="#202D40" fill-rule="evenodd">
</path>
</g>
</svg>