<?xml version="1.0" encoding="UTF-8"?>
<svg width="36px" height="36px" viewBox="0 0 36 36" version="1.1" xmlns="http://www.w3.org/2000/svg" xmlns:xlink="http://www.w3.org/1999/xlink">
<g><path d="M4 16.8c0-1.599.317-3.128.95-4.587.632-1.46 1.483-2.716 2.554-3.769 1.07-1.052 2.347-1.89 3.832-2.512A11.936 11.936 0 0116 5c1.625 0 3.18.31 4.664.933 1.485.622 2.762 1.46 3.832 2.513 1.07 1.052 1.922 2.308 2.555 3.768.63 1.45.953 3.01.949 4.585 0 2.566-.762 4.874-2.285 6.926-1.523 2.051-3.48 3.476-5.871 4.275-.126 0-.22-.023-.281-.069-.063-.045-.099-.092-.106-.138a1.348 1.348 0 01-.012-.207.175.175 0 01-.023-.07v-2.972c0-.937-.336-1.736-1.008-2.397 1.797-.308 3.14-.964 4.031-1.97.89-1.007 1.336-2.225 1.336-3.654 0-1.337-.437-2.497-1.313-3.48.313-.984.258-2.02-.163-3.112-.438-.03-.914.043-1.43.22-.516.176-.898.341-1.149.494-.25.154-.476.3-.679.439-.906-.246-1.918-.37-3.035-.37-1.118 0-2.12.124-3.012.37a15.216 15.216 0 00-.598-.404c-.227-.146-.62-.322-1.183-.53-.563-.207-1.07-.296-1.524-.264-.437 1.106-.484 2.158-.14 3.157-.86.983-1.29 2.143-1.29 3.48 0 1.429.438 2.643 1.313 3.641.875 1 2.219 1.66 4.031 1.983a3.27 3.27 0 00-.937 1.614c-1.328.322-2.258.091-2.789-.693-.985-1.413-1.867-1.92-2.648-1.52-.11.107-.094.218.046.334.14.115.352.269.633.46.281.193.492.404.633.635.015.03.059.142.13.334.066.185.137.37.21.553.07.176.203.373.398.587.195.216.422.396.68.543.258.145.613.253 1.066.322.453.069.969.073 1.547.012v2.316a.92.92 0 01-.012.115c-.007.054-.023.092-.046.115a.474.474 0 01-.094.07.297.297 0 01-.152.034c-.063 0-.141-.008-.235-.023-2.375-.815-4.308-2.24-5.8-4.276C4.745 21.644 4 19.351 4 16.801V16.8z" fill="#0085A1"></path></g>
</svg>