<?xml version="1.0" encoding="UTF-8"?>
<svg width="36px" height="36px" viewBox="0 0 36 36" version="1.1" xmlns="http://www.w3.org/2000/svg" xmlns:xlink="http://www.w3.org/1999/xlink">
<g><path d="M23.398 25.286L22.414 27H11.59v-1.714h11.807zm-13.135 0V27h-.64l-1.04-1.714h1.68zm15.398-3.838l-.999 1.714H7.338l-1.023-1.714H25.66zM28 17.593l-1.004 1.714h-4.13v-1.714H28zm-17.678 0v1.714H5.04L4 17.593h6.322zm11.297 0v1.714h-9.87v-1.714h9.87zm-7.123-3.855v1.714H4.093l1.004-1.714h9.399zm12.38 0l1.048 1.714H15.925v-1.714h10.95zm-2.28-3.869l1.025 1.714H6.398L7.402 9.87h17.194zM18.124 6v1.714h-9.45L9.677 6h8.447zm4.162 0l1.04 1.714H19.43V6h2.856z" fill="#415B94"></path></g>
</svg>