<?xml version="1.0" encoding="UTF-8"?>
<svg width="56px" height="56px" viewBox="0 0 56 56" version="1.1" xmlns="http://www.w3.org/2000/svg" xmlns:xlink="http://www.w3.org/1999/xlink">
    <title>icon-全方位统计报告</title>
    <defs>
        <linearGradient x1="16.3049906%" y1="0%" x2="85.4743228%" y2="91.5267355%" id="linearGradient-1">
            <stop stop-color="#E2EEFF" offset="0%"></stop>
            <stop stop-color="#ABC6EB" offset="100%"></stop>
        </linearGradient>
        <linearGradient x1="11.4904306%" y1="76.4540292%" x2="86.901819%" y2="76.4540292%" id="linearGradient-2">
            <stop stop-color="#349CFF" offset="0%"></stop>
            <stop stop-color="#005EEA" offset="100%"></stop>
        </linearGradient>
        <linearGradient x1="16.0421164%" y1="75.6910904%" x2="87.9769212%" y2="75.6910904%" id="linearGradient-3">
            <stop stop-color="#455B79" offset="0%"></stop>
            <stop stop-color="#030D1C" offset="100%"></stop>
        </linearGradient>
    </defs>
    <g id="首页" stroke="none" stroke-width="1" fill="none" fill-rule="evenodd">
        <g id="其他" transform="translate(-535.000000, -2507.000000)">
            <g id="icon-全方位统计报告" transform="translate(535.000000, 2507.000000)">
                <rect id="矩形" fill="#FFFFFF" opacity="0" x="0" y="0" width="56" height="56"></rect>
                <g id="分组-11" transform="translate(3.000000, 2.000000)">
                    <path d="M49.0663234,33.0909091 L19.6836766,33.0909091 C19.1679759,33.0909091 18.75,32.6675031 18.75,32.1454546 L18.75,0.945454547 C18.75,0.42340606 19.1679759,0 19.6836766,0 L49.0663234,0 C49.5820241,0 50,0.42340606 50,0.945454547 L50,32.1454546 C50,32.6675031 49.5820241,33.0909091 49.0663234,33.0909091" id="Fill-1" fill="url(#linearGradient-1)"></path>
                    <path d="M10.315156,42.5454545 C9.79603322,42.5454545 9.375,42.1201809 9.375,41.5954763 L9.375,10.4045238 C9.375,9.87997743 9.79603322,9.45454545 10.315156,9.45454545 L39.6848441,9.45454545 C40.2039669,9.45454545 40.625,9.87997743 40.625,10.4045238 L40.625,41.5954763 C40.625,42.1201809 40.2039669,42.5454545 39.6848441,42.5454545 L10.315156,42.5454545 Z" id="Fill-5" fill="url(#linearGradient-2)"></path>
                    <path d="M0.791781083,52 C0.246879765,52 0,51.5524834 0,51.0007073 L0,19.9083835 C0,19.3566074 0.44194079,18.9090909 0.986842108,18.9090909 L30.2631579,18.9090909 C30.8080592,18.9090909 31.25,19.3566074 31.25,19.9083835 L31.25,51.0007073 C31.25,51.5524834 30.8080592,52 30.2631579,52 L0.791781083,52 Z" id="Fill-9" fill="url(#linearGradient-3)"></path>
                    <path d="M17.0057146,30.0970513 C17.0057146,33.5201342 14.2540832,36.2951128 10.8598002,36.2951128 C7.46551735,36.2951128 4.713886,33.5201342 4.713886,30.0970513 C4.713886,26.6739684 7.46551735,23.8989899 10.8598002,23.8989899 C14.2540832,23.8989899 17.0057146,26.6739684 17.0057146,30.0970513" id="Fill-11" fill="#F7F7FC"></path>
                    <polygon id="Fill-13" fill="#F7F7FC" points="18.9572935 36.4645746 21.196276 46.3432371 27.2135417 30.1140059"></polygon>
                </g>
            </g>
        </g>
    </g>
</svg>