<?xml version="1.0" encoding="UTF-8"?>
<svg width="50px" height="54px" viewBox="0 0 50 54" version="1.1" xmlns="http://www.w3.org/2000/svg" xmlns:xlink="http://www.w3.org/1999/xlink">
    <!-- Generator: Sketch 59.1 (86144) - https://sketch.com -->
    <title>分组 8</title>
    <defs>
        <linearGradient x1="11.4904306%" y1="76.4540292%" x2="86.901819%" y2="76.4540292%" id="linearGradient-1">
            <stop stop-color="#349CFF" offset="0%"></stop>
            <stop stop-color="#005EEA" offset="100%"></stop>
        </linearGradient>
        <linearGradient x1="59.3250826%" y1="100%" x2="18.1058454%" y2="-10.4564165%" id="linearGradient-2">
            <stop stop-color="#455B79" offset="0%"></stop>
            <stop stop-color="#030D1C" offset="100%"></stop>
        </linearGradient>
        <linearGradient x1="57.2013864%" y1="100%" x2="25.3694267%" y2="-10.4564165%" id="linearGradient-3">
            <stop stop-color="#455B79" offset="0%"></stop>
            <stop stop-color="#030D1C" offset="100%"></stop>
        </linearGradient>
    </defs>
    <g id="OA官网" stroke="none" stroke-width="1" fill="none" fill-rule="evenodd">
        <g id="介绍页-代码分析-指定代码库分支" transform="translate(-699.000000, -1926.000000)">
            <rect fill="#FFFFFF" x="0" y="0" width="1440" height="2635"></rect>
            <g id="特性" transform="translate(0.000000, 1418.000000)">
                <rect id="矩形" fill="#FFFFFF" x="0" y="0" width="1440" height="827"></rect>
                <g id="全面兼容-Jenkins" transform="translate(535.000000, 493.000000)">
                    <rect id="矩形" fill="#D8D8D8" opacity="0" x="0" y="0" width="376" height="254"></rect>
                    <g id="分组-8" transform="translate(161.000000, 14.000000)">
                        <rect id="矩形" fill="#DADFE6" opacity="0" x="0" y="0" width="56" height="56"></rect>
                        <g id="分组-11" transform="translate(3.000000, 1.000000)">
                            <path d="M22.2222222,9 C34.4952167,9 44.4444444,19.0735931 44.4444444,31.5 C44.4444444,43.9264069 34.4952167,54 22.2222222,54 C9.94922778,54 0,43.9264069 0,31.5 C0,19.0735931 9.94922778,9 22.2222222,9 Z M22.2222222,11.3684211 C11.2411219,11.3684211 2.33918129,20.381636 2.33918129,31.5 C2.33918129,42.618364 11.2411219,51.6315789 22.2222222,51.6315789 C33.2033225,51.6315789 42.1052632,42.618364 42.1052632,31.5 C42.1052632,20.381636 33.2033225,11.3684211 22.2222222,11.3684211 Z M22.2222222,13.7368421 C31.9114284,13.7368421 39.7660819,21.6896788 39.7660819,31.5 C39.7660819,41.3103212 31.9114284,49.2631579 22.2222222,49.2631579 C12.5330161,49.2631579 4.67836257,41.3103212 4.67836257,31.5 C4.67836257,21.6896788 12.5330161,13.7368421 22.2222222,13.7368421 Z M22.2222222,16.1052632 C13.8249102,16.1052632 7.01754386,22.9977216 7.01754386,31.5 C7.01754386,40.0022784 13.8249102,46.8947368 22.2222222,46.8947368 C30.6195342,46.8947368 37.4269006,40.0022784 37.4269006,31.5 C37.4269006,22.9977216 30.6195342,16.1052632 22.2222222,16.1052632 Z M22.2222222,18.4736842 C29.3276401,18.4736842 35.0877193,24.3057644 35.0877193,31.5 C35.0877193,38.6942356 29.3276401,44.5263158 22.2222222,44.5263158 C15.1168044,44.5263158 9.35672515,38.6942356 9.35672515,31.5 C9.35672515,24.3057644 15.1168044,18.4736842 22.2222222,18.4736842 Z M22.2222222,20.8421053 C16.4086985,20.8421053 11.6959064,25.6138073 11.6959064,31.5 C11.6959064,37.3861927 16.4086985,42.1578947 22.2222222,42.1578947 C28.0357459,42.1578947 32.748538,37.3861927 32.748538,31.5 C32.748538,25.6138073 28.0357459,20.8421053 22.2222222,20.8421053 Z M22.2222222,23.2105263 C26.7438518,23.2105263 30.4093567,26.9218501 30.4093567,31.5 C30.4093567,36.0781499 26.7438518,39.7894737 22.2222222,39.7894737 C17.7005927,39.7894737 14.0350877,36.0781499 14.0350877,31.5 C14.0350877,26.9218501 17.7005927,23.2105263 22.2222222,23.2105263 Z M22.2222222,25.5789474 C18.9924868,25.5789474 16.374269,28.2298929 16.374269,31.5 C16.374269,34.7701071 18.9924868,37.4210526 22.2222222,37.4210526 C25.4519576,37.4210526 28.0701754,34.7701071 28.0701754,31.5 C28.0701754,28.2298929 25.4519576,25.5789474 22.2222222,25.5789474 Z M22.2222222,27.9473684 C24.1600634,27.9473684 25.7309942,29.5379358 25.7309942,31.5 C25.7309942,33.4620642 24.1600634,35.0526316 22.2222222,35.0526316 C20.284381,35.0526316 18.7134503,33.4620642 18.7134503,31.5 C18.7134503,29.5379358 20.284381,27.9473684 22.2222222,27.9473684 Z" id="合并形状" fill="url(#linearGradient-1)"></path>
                            <ellipse id="椭圆形" fill="url(#linearGradient-2)" cx="22.2222222" cy="31.5" rx="3.50877193" ry="3.55263158"></ellipse>
                            <path d="M22.2222222,7.46069873e-14 L22.2694408,31.6973684 L49.6296296,15.8486842 C45.6826613,10.7744145 41.4851305,7.1075912 37.037037,4.84821429 C32.5889436,2.58883737 27.6591471,1.6195007 22.2476476,1.94020428 L22.2222222,7.46069873e-14 Z" id="路径" fill="#FFFFFF"></path>
                            <path d="M23.7037037,4.49986637 L23.7037037,29.25 L45.1851852,16.5 C40.0709701,8.49991091 32.9229889,4.49986637 23.7412415,4.49986637 L23.7239164,4.49986637 L23.7037037,4.49986637 Z" id="路径" fill="url(#linearGradient-3)"></path>
                        </g>
                    </g>
                </g>
            </g>
        </g>
    </g>
</svg>