<?xml version="1.0" encoding="UTF-8"?>
<svg width="14px" height="14px" viewBox="0 0 14 14" version="1.1" xmlns="http://www.w3.org/2000/svg" xmlns:xlink="http://www.w3.org/1999/xlink">
    <!-- Generator: Sketch 57.1 (83088) - https://sketch.com -->
    <title>皮肤</title>
    <desc>Created with Sketch.</desc>
    <g id="代码分析-" stroke="none" stroke-width="1" fill="none" fill-rule="evenodd">
        <g id="代码分析-重复代码详情-选择代码块-" transform="translate(-795.000000, -207.000000)">
            <g id="编组-8" transform="translate(240.000000, 48.000000)">
                <g id="编组-19" transform="translate(20.000000, 148.000000)">
                    <g id="编组-18" transform="translate(0.000000, 9.000000)">
                        <g id="皮肤" transform="translate(535.000000, 2.000000)">
                            <g id="主题">
                                <g fill-rule="nonzero">
                                    <path d="M7.90371443,13.4361784 C7.54038598,13.093947 7.23663251,12.6327611 7.12698339,12.1118003 C6.97904994,11.4212848 7.00246036,10.8803793 7.46950132,10.3840754 C7.77288893,10.0684795 8.22494892,9.86823532 8.66153062,9.86823529 C8.74077855,9.86823529 8.81464936,9.87562408 8.9489035,9.89612279 C9.02927505,9.91359889 9.10025347,9.93655322 9.17839668,9.96794513 C9.13222022,9.94939499 9.34943072,10.0406093 9.40478953,10.0593543 C9.45136123,10.0751238 9.50208257,10.089368 9.55393613,10.1011027 C9.70715194,10.13303 9.83383307,10.1482353 9.96536085,10.1509838 C9.97861707,10.1523972 10.0084036,10.1551264 10.0449959,10.1577883 C10.0919771,10.1612059 10.1379543,10.1635606 10.1791446,10.1643867 C10.1947237,10.1646518 10.1947237,10.1646518 10.2094087,10.1647059 C12.0077142,10.1647059 13.4681941,8.72368919 13.49677,6.93411765 L13.4976324,6.84711634 C13.5033225,6.75036238 13.4987795,6.65190712 13.4841625,6.53494445 L13.4817029,6.51032757 C13.2281776,3.12920937 10.4068415,0.5 6.998385,0.5 C3.40779156,0.5 0.5,3.41082718 0.5,7 C0.5,10.5862364 3.41309136,13.5 6.998385,13.5 C7.30305007,13.5 7.60518324,13.4784991 7.90371443,13.4361784 Z" id="形状" stroke="#919DAF"></path>
                                    <path d="M9,5 C8.99994759,5.35724812 9.19053504,5.68738142 9.49995765,5.86602061 C9.80938025,6.0446598 10.1906198,6.0446598 10.5000424,5.86602061 C10.809465,5.68738142 11.0000524,5.35724812 11,5 C11.0000524,4.64275188 10.809465,4.31261858 10.5000424,4.13397939 C10.1906198,3.9553402 9.80938025,3.9553402 9.49995765,4.13397939 C9.19053504,4.31261858 8.99994759,4.64275188 9,5 L9,5 Z" id="路径" fill="#919DAF"></path>
                                    <path d="M5,4 C5,4.55228475 5.44771525,5 6,5 C6.55228475,5 7,4.55228475 7,4 C7,3.44771525 6.55228475,3 6,3 C5.44771525,3 5,3.44771525 5,4 L5,4 Z" id="路径" fill="#919DAF"></path>
                                    <path d="M3,7 C2.99994759,7.35724812 3.19053504,7.68738142 3.49995765,7.86602061 C3.80938025,8.0446598 4.19061975,8.0446598 4.50004235,7.86602061 C4.80946496,7.68738142 5.00005241,7.35724812 5,7 C5.00005241,6.64275188 4.80946496,6.31261858 4.50004235,6.13397939 C4.19061975,5.9553402 3.80938025,5.9553402 3.49995765,6.13397939 C3.19053504,6.31261858 2.99994759,6.64275188 3,7 L3,7 Z" id="路径" fill="#919DAF"></path>
                                </g>
                            </g>
                        </g>
                    </g>
                </g>
            </g>
        </g>
    </g>
</svg>