<?xml version="1.0" encoding="UTF-8"?>
<svg width="40px" height="40px" viewBox="0 0 40 40" version="1.1" xmlns="http://www.w3.org/2000/svg" xmlns:xlink="http://www.w3.org/1999/xlink">
    <!-- Generator: Sketch 57.1 (83088) - https://sketch.com -->
    <title>重复率1</title>
    <desc>Created with Sketch.</desc>
    <g id="代码分析-" stroke="none" stroke-width="1" fill="none" fill-rule="evenodd">
        <g id="概览" transform="translate(-970.000000, -370.000000)" fill="#0066FF">
            <g id="编组-25" transform="translate(260.000000, 139.000000)">
                <g id="编组-21" transform="translate(430.000000, 81.000000)">
                    <g id="编组-5备份-3" transform="translate(0.000000, 120.000000)">
                        <g id="编组-6">
                            <g id="编组-20" transform="translate(280.000000, 30.000000)">
                                <circle id="椭圆形" opacity="0.104352679" cx="20" cy="20" r="20"></circle>
                                <path d="M20.4117647,13 C24.1258823,13 27,15.625 27,20 L25.3529412,20 C25.3529412,17.375 23.5947059,14.75 20.4117647,14.75 C18.4912941,14.75 17.1176471,15.1875 15.8823529,16.5 L17.9411765,16.5 L17.9411765,18.25 L13,18.25 L13,13 L14.6470588,13 L14.6470588,15.1875 C15.9844706,13.4795 18.2154118,13 20.4117647,13 Z M19.5882353,27 C15.8741177,27 13,24.375 13,20 L14.6470588,20 C14.6470588,22.625 16.4052941,25.25 19.5882353,25.25 C21.5087059,25.25 22.8823529,24.8125 24.1176471,23.5 L22.0588235,23.5 L22.0588235,21.75 L27,21.75 L27,27 L25.3529412,27 L25.3529412,24.8125 C24.0155294,26.5205 21.7845882,27 19.5882353,27 Z" id="形状" fill-rule="nonzero"></path>
                            </g>
                        </g>
                    </g>
                </g>
            </g>
        </g>
    </g>
</svg>