<?xml version="1.0" encoding="UTF-8"?>
<svg width="18px" height="18px" viewBox="0 0 18 18" version="1.1" xmlns="http://www.w3.org/2000/svg" xmlns:xlink="http://www.w3.org/1999/xlink">
    <!-- Generator: Sketch 60.1 (88133) - https://sketch.com -->
    <title>Content / CI / Status / failure</title>
    <desc>Created with Sketch.</desc>
    <g id="代码分析-" stroke="none" stroke-width="1" fill="none" fill-rule="evenodd">
        <g id="1-4-扫描任务" transform="translate(-894.000000, -308.000000)">
            <g id="编组" transform="translate(250.000000, 169.000000)">
                <g id="编组-14" transform="translate(0.000000, 42.000000)">
                    <g id="编组-13" transform="translate(0.002639, 40.000000)">
                        <g id="编组-4备份" transform="translate(0.000000, 44.000000)">
                            <g id="Content-/-CI-/-Status-/-Failure" transform="translate(644.000000, 13.000000)">
                                <circle id="Oval" fill="#FF6046" cx="9" cy="9" r="9"></circle>
                                <path d="M10.3740116,9.56250939 L12.4247879,11.6132857 C12.5478345,11.7363323 12.6093578,11.8867225 12.6093578,12.0644565 C12.6093578,12.2421906 12.5478345,12.3994166 12.4247879,12.5361351 L11.9736171,12.9873059 C11.8368986,13.1103525 11.6796726,13.1718758 11.5019386,13.1718758 C11.3242045,13.1718758 11.1738143,13.1103525 11.0507678,12.9873059 L8.99999139,10.9365295 L6.94921503,12.9873059 C6.82616845,13.1103525 6.67577829,13.1718758 6.49804423,13.1718758 C6.32031018,13.1718758 6.1630842,13.1103525 6.02636567,12.9873059 L5.57519487,12.5361351 C5.45214829,12.3994166 5.390625,12.2421906 5.390625,12.0644565 C5.390625,11.8867225 5.45214829,11.7363323 5.57519487,11.6132857 L7.62597123,9.56250939 L5.57519487,7.51173303 C5.45214829,7.38868645 5.390625,7.23829628 5.390625,7.06056223 C5.390625,6.88282817 5.45214829,6.72560219 5.57519487,6.58888366 L6.02636567,6.13771287 C6.1630842,6.01466628 6.32031018,5.95314299 6.49804423,5.95314299 C6.67577829,5.95314299 6.82616845,6.01466628 6.94921503,6.13771287 L8.99999139,8.18848923 L11.0507678,6.13771287 C11.1738143,6.01466628 11.3242045,5.95314299 11.5019386,5.95314299 C11.6796726,5.95314299 11.8368986,6.01466628 11.9736171,6.13771287 L12.4247879,6.58888366 C12.5478345,6.72560219 12.6093578,6.88282817 12.6093578,7.06056223 C12.6093578,7.23829628 12.5478345,7.38868645 12.4247879,7.51173303 L10.3740116,9.56250939 Z" id="times" fill="#FFFFFF"></path>
                            </g>
                        </g>
                    </g>
                </g>
            </g>
        </g>
    </g>
</svg>