<?xml version="1.0" encoding="UTF-8"?>
<svg width="60px" height="70px" viewBox="0 0 60 70" version="1.1" xmlns="http://www.w3.org/2000/svg" xmlns:xlink="http://www.w3.org/1999/xlink">
    <title>Figure</title>
    <g id="代码分析-分析项目" stroke="none" stroke-width="1" fill="none" fill-rule="evenodd">
        <g id="#-1-1-分析项目-分支概览" transform="translate(-492.000000, -1830.000000)">
            <g id="编组-8" transform="translate(250.000000, 1068.000000)">
                <g id="Group-13" transform="translate(0.000000, 636.000000)">
                    <g id="编组-26备份" transform="translate(0.000000, 32.000000)">
                        <g id="Figure" transform="translate(152.000000, 94.000000)">
                            <g transform="translate(90.000000, 0.000000)">
                                <path d="M7.5,0 L40,0 L40,0 L60,20 L60,62.5 C60,66.6421356 56.6421356,70 52.5,70 L7.5,70 C3.35786438,70 5.07265313e-16,66.6421356 0,62.5 L0,7.5 C-5.07265313e-16,3.35786438 3.35786438,7.6089797e-16 7.5,0 Z" id="Rectangle" fill="#F0F2F5"></path>
                                <path d="M30,20 C32.209139,20 34,21.790861 34,24 C34,26.209139 32.209139,28 30,28 C29.0339666,28 28.1479172,27.6575477 27.4566264,27.0874177 L23.9024547,29.1180729 C23.9663041,29.4018168 24,29.6969734 24,30 C24,30.1785163 23.9883058,30.3543012 23.9656416,30.5266306 L29.641313,33.7690875 C30.3026236,33.2854827 31.1179728,33 32,33 C34.209139,33 36,34.790861 36,37 C36,39.209139 34.209139,41 32,41 C31.0659558,41 30.2066861,40.6798521 29.5259371,40.1433024 L23.7233249,43.5352758 C23.8864174,43.9495264 23.9823752,44.397559 23.9977968,44.8659721 L36.4400334,51.910722 C37.1445653,51.2299931 38.1037938,50.8111888 39.1608392,50.8111888 C41.3236326,50.8111888 43.0769231,52.5644793 43.0769231,54.7272727 C43.0769231,56.8900662 41.3236326,58.6433566 39.1608392,58.6433566 C36.9980457,58.6433566 35.2447552,56.8900662 35.2447552,54.7272727 L35.247,54.61 L22.9865289,47.6610097 C22.2539484,48.482625 21.1873939,49 20,49 C17.790861,49 16,47.209139 16,45 C16,42.790861 17.790861,41 20,41 C20.5761794,41 21.1239053,41.1218235 21.6188254,41.3411182 L28.045489,37.6052209 C28.0155326,37.4078475 28,37.2057377 28,37 C28,36.7451937 28.0238252,36.4959521 28.0693693,36.2543813 L22.5363808,33.0931716 C21.8461124,33.659851 20.9627792,34 20,34 C17.790861,34 16,32.209139 16,30 C16,27.790861 17.790861,26 20,26 C20.8294052,26 21.5998511,26.2524348 22.2386987,26.6846655 L26.033063,24.5166847 C26.0112488,24.3475393 26,24.1750833 26,24 C26,21.790861 27.790861,20 30,20 Z" id="Combined-Shape" fill="#CED3DB" fill-rule="nonzero" transform="translate(29.538462, 39.321678) rotate(-90.000000) translate(-29.538462, -39.321678) "></path>
                                <path d="M40,0 L60,20 L47.5,20 C43.3578644,20 40,16.6421356 40,12.5 L40,0 L40,0 Z" id="Rectangle" fill="#8592A6" opacity="0.503255208"></path>
                            </g>
                        </g>
                    </g>
                </g>
            </g>
        </g>
    </g>
</svg>