<?xml version="1.0" encoding="UTF-8"?>
<svg width="103px" height="102px" viewBox="0 0 103 102" version="1.1" xmlns="http://www.w3.org/2000/svg" xmlns:xlink="http://www.w3.org/1999/xlink">
    <!-- Generator: Sketch 57.1 (83088) - https://sketch.com -->
    <title>列表空白页</title>
    <desc>Created with Sketch.</desc>
    <defs>
        <rect id="path-1" x="0" y="0" width="76" height="88" rx="3"></rect>
        <filter x="-6.6%" y="-4.5%" width="113.2%" height="111.4%" filterUnits="objectBoundingBox" id="filter-2">
            <feOffset dx="0" dy="1" in="SourceAlpha" result="shadowOffsetOuter1"></feOffset>
            <feGaussianBlur stdDeviation="1.5" in="shadowOffsetOuter1" result="shadowBlurOuter1"></feGaussianBlur>
            <feComposite in="shadowBlurOuter1" in2="SourceAlpha" operator="out" result="shadowBlurOuter1"></feComposite>
            <feColorMatrix values="0 0 0 0 0   0 0 0 0 0   0 0 0 0 0  0 0 0 0.04 0" type="matrix" in="shadowBlurOuter1"></feColorMatrix>
        </filter>
        <rect id="path-3" x="0" y="0" width="76" height="88" rx="3"></rect>
        <filter x="-6.6%" y="-4.5%" width="113.2%" height="111.4%" filterUnits="objectBoundingBox" id="filter-4">
            <feOffset dx="0" dy="1" in="SourceAlpha" result="shadowOffsetOuter1"></feOffset>
            <feGaussianBlur stdDeviation="1.5" in="shadowOffsetOuter1" result="shadowBlurOuter1"></feGaussianBlur>
            <feComposite in="shadowBlurOuter1" in2="SourceAlpha" operator="out" result="shadowBlurOuter1"></feComposite>
            <feColorMatrix values="0 0 0 0 0   0 0 0 0 0   0 0 0 0 0  0 0 0 0.04 0" type="matrix" in="shadowBlurOuter1"></feColorMatrix>
        </filter>
    </defs>
    <g id="代码分析-" stroke="none" stroke-width="1" fill="none" fill-rule="evenodd">
        <g id="代码分析-列表空白页" transform="translate(-789.000000, -408.000000)">
            <g id="Empty-diagram" transform="translate(727.000000, 408.000000)">
                <g id="测试报告" transform="translate(62.000000, 0.000000)">
                    <g id="no-issues" transform="translate(0.000000, 7.000000)">
                        <g id="Group-4" opacity="0.5" transform="translate(26.000000, 0.000000)">
                            <g id="Rectangle">
                                <use fill="black" fill-opacity="1" filter="url(#filter-2)" xlink:href="#path-1"></use>
                                <rect stroke="#DFE5F0" stroke-width="1" stroke-linejoin="square" fill="#FFFFFF" fill-rule="evenodd" x="0.5" y="0.5" width="75" height="87" rx="3"></rect>
                            </g>
                            <g id="type-icons/requirements" transform="translate(11.000000, 12.000000)">
                                <g>
                                    <rect id="Rectangle" fill="#1A78FF" fill-rule="nonzero" opacity="0.149999991" x="0" y="0" width="16" height="16" rx="2"></rect>
                                    <g id="bulb-61" transform="translate(3.500000, 2.000000)">
                                        <path d="M3.49157323,8.11111111 L5.50842677,8.11111111 L5.68344963,6.9034534 L6.06831739,6.68963798 C7.00143449,6.17123959 7.61111111,5.12607967 7.61111111,4 C7.61111111,2.29091978 6.20908022,0.888888889 4.5,0.888888889 C2.79091978,0.888888889 1.38888889,2.29091978 1.38888889,4 C1.38888889,5.12607967 1.99856551,6.17123959 2.93168261,6.68963798 L3.31655037,6.9034534 L3.49157323,8.11111111 Z" id="Path" stroke="#0070FF" stroke-width="1.77777778"></path>
                                        <rect id="Rectangle" fill="#0C76FF" x="2.75" y="10" width="3.5" height="2"></rect>
                                    </g>
                                </g>
                            </g>
                            <g id="type-icons/task" transform="translate(11.000000, 36.000000)">
                                <g id="Rectangle">
                                    <rect fill="#09B1E5" fill-rule="nonzero" opacity="0.145577" x="0" y="0" width="16" height="16" rx="2"></rect>
                                    <rect fill="#00ABE0" x="3" y="3.5" width="3" height="3" rx="1.5"></rect>
                                    <rect fill="#00ABE0" x="8" y="4" width="5" height="2" rx="1"></rect>
                                    <rect fill="#00ABE0" x="3" y="9.5" width="3" height="3" rx="1.5"></rect>
                                    <rect fill="#00ABE0" x="8" y="10" width="5" height="2" rx="1"></rect>
                                </g>
                            </g>
                            <g id="type-icons/issue" transform="translate(11.000000, 60.000000)" fill-rule="nonzero">
                                <rect id="Rectangle" fill="#FD9B47" opacity="0.149999991" x="0" y="0" width="16" height="16" rx="2"></rect>
                                <circle id="Oval" stroke="#FF871F" stroke-width="2" cx="8" cy="8" r="4"></circle>
                            </g>
                            <rect id="Rectangle" fill="#CFD8E5" fill-rule="nonzero" x="33" y="15" width="34" height="3" rx="1"></rect>
                            <rect id="Rectangle-Copy-12" fill="#CFD8E5" fill-rule="nonzero" x="33" y="40" width="32" height="3" rx="1"></rect>
                            <rect id="Rectangle-Copy-14" fill="#CFD8E5" fill-rule="nonzero" x="33" y="65" width="32" height="3" rx="1"></rect>
                            <rect id="Rectangle-Copy-11" fill="#CFD8E5" fill-rule="nonzero" x="33" y="21" width="23" height="2" rx="1"></rect>
                            <rect id="Rectangle-Copy-13" fill="#CFD8E5" fill-rule="nonzero" x="33" y="46" width="17" height="2" rx="1"></rect>
                            <rect id="Rectangle-Copy-15" fill="#CFD8E5" fill-rule="nonzero" x="33" y="71" width="26" height="2" rx="1"></rect>
                        </g>
                        <g id="Group-4-Copy">
                            <g id="Rectangle">
                                <use fill="black" fill-opacity="1" filter="url(#filter-4)" xlink:href="#path-3"></use>
                                <rect stroke="#DFE5F0" stroke-width="1" stroke-linejoin="square" fill="#FFFFFF" fill-rule="evenodd" x="0.5" y="0.5" width="75" height="87" rx="3"></rect>
                            </g>
                            <g id="分组-3" transform="translate(10.000000, 15.000000)" fill-rule="nonzero">
                                <rect id="Rectangle" fill="#0066FF" x="0" y="0" width="41" height="3" rx="1"></rect>
                                <rect id="Rectangle备份" fill="#0066FF" x="45" y="0" width="11" height="8" rx="1"></rect>
                                <rect id="Rectangle备份-2" fill="#F5A623" x="45" y="25" width="11" height="8" rx="1"></rect>
                                <rect id="Rectangle备份-3" fill="#3AC27D" x="45" y="50" width="11" height="8" rx="1"></rect>
                                <rect id="Rectangle-Copy-11" fill="#0066FF" opacity="0.5" x="0" y="6" width="27" height="2" rx="1"></rect>
                            </g>
                            <g id="分组-4" transform="translate(10.000000, 37.000000)">
                                <rect id="Rectangle-Copy-12" fill="#CFD8E5" fill-rule="nonzero" x="0" y="3" width="41" height="3" rx="1"></rect>
                                <rect id="Rectangle-Copy-13" fill="#CFD8E5" fill-rule="nonzero" opacity="0.5" x="0" y="9" width="30" height="2" rx="1"></rect>
                                <g id="Element-/-Table-/-Head-/-Left" transform="translate(1.000000, 0.000000)"></g>
                            </g>
                            <rect id="Rectangle-Copy-14" fill="#CFD8E5" fill-rule="nonzero" x="10" y="65" width="41" height="3" rx="1"></rect>
                            <g id="分组-5" transform="translate(10.000000, 71.000000)" fill="#CFD8E5" fill-rule="nonzero" opacity="0.5">
                                <rect id="Rectangle-Copy-15" x="0" y="-1.59161573e-12" width="34" height="2" rx="1"></rect>
                            </g>
                        </g>
                    </g>
                </g>
            </g>
        </g>
    </g>
</svg>