<?xml version="1.0" encoding="UTF-8"?>
<svg width="16px" height="16px" viewBox="0 0 16 16" version="1.1" xmlns="http://www.w3.org/2000/svg" xmlns:xlink="http://www.w3.org/1999/xlink">
    <title>icon-伙伴</title>
    <g id="icon-伙伴" stroke="none" stroke-width="1" fill="none" fill-rule="evenodd">
        <path d="M8.85544605,1.72925613 C9.90687701,0.677825179 11.6614421,0.786744618 12.779701,1.90500355 L12.779701,1.90500355 L15.0949964,4.220299 C16.2132554,5.33855794 16.3221748,7.09312299 15.2707439,8.14455395 L15.2707439,8.14455395 L13.3964901,10.0188077 C13.3526137,10.071932 13.3053981,10.1255305 13.2542388,10.1766898 C13.000545,10.4303836 12.6868708,10.5870977 12.3597625,10.6466175 C12.3012977,10.9729263 12.1446324,11.2862962 11.8911452,11.5397834 C11.6374513,11.7934773 11.3237771,11.9501913 10.9966688,12.0097111 C10.9382041,12.33602 10.7815387,12.6493899 10.5280515,12.9028771 C10.2743577,13.1565709 9.96068347,13.313285 9.63357519,13.3728047 C9.57511043,13.6991136 9.41844509,14.0124835 9.16495789,14.2659707 C8.53917973,14.8917489 7.54845438,14.9274589 6.89136249,14.3698816 L6.79048556,14.2769123 L0.712835005,8.19926171 C-0.291743802,7.1946829 -0.211302919,5.52632546 0.807681202,4.39648143 L0.924756536,4.27322039 L3.2614885,1.93648843 C4.34979341,0.848183515 6.02114107,0.692996785 7.07323943,1.61740469 L7.18752981,1.7245669 L8.024,2.561 Z M4.38144971,2.85045476 L4.27443026,2.94943019 L1.9376983,5.28616215 C1.38041886,5.84344158 1.29407467,6.62795559 1.6610411,7.09351932 L1.73515524,7.17694147 L7.8128058,13.254592 C7.90604451,13.3478307 8.05791415,13.3471309 8.15201613,13.253029 C8.23267497,13.1723701 8.24471181,13.0492697 8.18778888,12.9570284 L8.15357921,12.9138186 L6.80299019,11.5632296 C6.52327405,11.2835135 6.52537349,10.8279045 6.80767943,10.5455986 C7.06645987,10.2868182 7.47086296,10.263489 7.75191904,10.4768506 L7.82531043,10.5409094 L9.17589944,11.8914984 C9.26913815,11.9847371 9.42100779,11.9840373 9.51510977,11.8899353 C9.59576861,11.8092765 9.60780545,11.6861761 9.55088252,11.5939347 L9.51667285,11.550725 L8.16608384,10.200136 C7.88636769,9.92041982 7.88846714,9.4648109 8.17077307,9.18250497 C8.42955352,8.92372453 8.8339566,8.90039537 9.11501268,9.11375692 L9.18840407,9.17781573 L10.5389931,10.5284047 C10.6322318,10.6216435 10.7841014,10.6209436 10.8782034,10.5268417 C10.9588623,10.4461828 10.9708991,10.3230824 10.9139762,10.2308411 L10.8797665,10.1876313 L9.52917748,8.83704232 C9.24946134,8.55732618 9.25156078,8.10171726 9.53386672,7.81941132 C9.79264716,7.56063088 10.1970502,7.53730173 10.4781063,7.75066328 L10.5514977,7.81472209 L11.9020867,9.1653111 C11.9953254,9.25854981 12.1471951,9.25785 12.2412971,9.16374802 C12.3066444,9.09840069 12.32695,9.00519581 12.3020342,8.92311275 L9.352,5.974 L8.52092496,6.80646956 C8.36189723,6.9654973 8.17930083,7.08641782 7.98460077,7.16917831 C7.40780728,7.42738164 6.71754707,7.34576394 6.21919414,6.92288509 L6.21919414,6.92288509 L6.11831721,6.82991575 C5.46564621,6.17724475 5.47054491,5.11415728 6.12925877,4.45544342 L6.12925877,4.45544342 L7.001,3.583 L6.16520958,2.74688713 C5.74164817,2.32332572 4.96499993,2.35197339 4.38144971,2.85045476 Z M11.7573808,2.92732379 C11.1707032,2.34064623 10.3225885,2.28799719 9.86838781,2.74219789 L9.86838781,2.74219789 L8.6103925,4.00230297 C8.60640502,4.00784639 8.60233002,4.01334671 8.59816751,4.01880203 L8.53342959,4.09278691 L7.17033595,5.45588055 C7.07623397,5.54998253 7.07553415,5.70185217 7.16877287,5.79509088 C7.2400226,5.86634061 7.34550971,5.88273516 7.43329343,5.84451388 L7.47984778,5.80603244 L9.35410154,3.93177868 L9.73445277,4.30859935 C9.78973331,4.3396951 9.84170399,4.37874108 9.88870784,4.42574492 C9.93561497,4.47265205 9.97459695,4.5245056 10.0056614,4.5796588 L11.7577742,6.33304868 C11.7865467,6.34907619 11.8144327,6.36724949 11.8412,6.38756963 L11.9145914,6.45162844 L13.2651804,7.80221746 C13.3195948,7.8566319 13.3694386,7.91389909 13.4147138,7.97354687 L14.2578021,7.13161219 C14.6852851,6.70412917 14.663794,5.92771197 14.1706695,5.34873106 L14.1706695,5.34873106 L14.0726762,5.24261924 Z" id="形状结合" fill="#4C7EBD"></path>
    </g>
</svg>