<?xml version="1.0" encoding="UTF-8"?>
<svg width="16px" height="16px" viewBox="0 0 16 16" version="1.1" xmlns="http://www.w3.org/2000/svg" xmlns:xlink="http://www.w3.org/1999/xlink">
    <!-- Generator: Sketch 57.1 (83088) - https://sketch.com -->
    <title>定位</title>
    <desc>Created with Sketch.</desc>
    <defs>
        <filter x="-2.2%" y="-1.3%" width="104.5%" height="102.5%" filterUnits="objectBoundingBox" id="filter-1">
            <feOffset dx="-2" dy="0" in="SourceAlpha" result="shadowOffsetOuter1"></feOffset>
            <feGaussianBlur stdDeviation="2.5" in="shadowOffsetOuter1" result="shadowBlurOuter1"></feGaussianBlur>
            <feColorMatrix values="0 0 0 0 0.125490196   0 0 0 0 0.176470588   0 0 0 0 0.250980392  0 0 0 0.12 0" type="matrix" in="shadowBlurOuter1" result="shadowMatrixOuter1"></feColorMatrix>
            <feMerge>
                <feMergeNode in="shadowMatrixOuter1"></feMergeNode>
                <feMergeNode in="SourceGraphic"></feMergeNode>
            </feMerge>
        </filter>
    </defs>
    <g id="代码分析-" stroke="none" stroke-width="1" fill="none" fill-rule="evenodd">
        <g id="代码分析-重复代码详情-对比代码" transform="translate(-1400.000000, -82.000000)" fill="#919DAF">
            <g id="编组-8" filter="url(#filter-1)" transform="translate(840.000000, 48.000000)">
                <g id="编组-20" transform="translate(560.000000, 34.000000)">
                    <g id="定位">
                        <g id="瞄准镜">
                            <path d="M4.92307692,7.87692308 C4.92299955,8.93220487 5.48598252,9.90735857 6.39993748,10.4350218 C7.31389244,10.962685 8.43995372,10.962685 9.35390868,10.4350218 C10.2678636,9.90735857 10.8308466,8.93220487 10.8307692,7.87692308 C10.8308466,6.82164128 10.2678636,5.84648758 9.35390868,5.31882435 C8.43995372,4.79116111 7.31389244,4.79116111 6.39993748,5.31882435 C5.48598252,5.84648758 4.92299955,6.82164128 4.92307692,7.87692308 L4.92307692,7.87692308 Z" id="路径" fill-rule="nonzero"></path>
                            <path d="M14.5016722,7.27759197 C14.1538462,4.22742474 11.7458194,1.81939799 8.72240802,1.49832775 L8.72240802,0 L7.27759197,0 L7.27759197,1.49832775 C4.22742474,1.81939799 1.81939799,4.22742474 1.49832775,7.27759197 L0,7.27759197 L0,8.72240802 L1.49832775,8.72240802 C1.81939799,11.7458194 4.22742474,14.1538461 7.27759197,14.5016722 L7.27759197,16 L8.72240802,16 L8.72240802,14.5016722 C11.7458194,14.180602 14.1538462,11.7725752 14.5016722,8.72240802 L16,8.72240802 L16,7.27759197 L14.5016722,7.27759197 Z M7.99999999,13.083612 C5.19063544,13.083612 2.91638796,10.8093645 2.91638796,7.99999999 C2.91638796,5.19063544 5.19063546,2.91638796 7.99999999,2.91638796 C10.8093645,2.91638796 13.083612,5.19063546 13.083612,7.99999999 C13.083612,10.8093645 10.8093645,13.083612 7.99999999,13.083612 Z" id="形状" fill-rule="nonzero"></path>
                        </g>
                    </g>
                </g>
            </g>
        </g>
    </g>
</svg>