<?xml version="1.0" encoding="UTF-8"?>
<svg width="142px" height="102px" viewBox="0 0 142 102" version="1.1" xmlns="http://www.w3.org/2000/svg" xmlns:xlink="http://www.w3.org/1999/xlink">
    <title>Intro</title>
    <defs>
        <rect id="path-1" x="0" y="0" width="136" height="96" rx="3"></rect>
        <filter x="-3.7%" y="-4.2%" width="107.4%" height="110.4%" filterUnits="objectBoundingBox" id="filter-2">
            <feOffset dx="0" dy="1" in="SourceAlpha" result="shadowOffsetOuter1"></feOffset>
            <feGaussianBlur stdDeviation="1.5" in="shadowOffsetOuter1" result="shadowBlurOuter1"></feGaussianBlur>
            <feColorMatrix values="0 0 0 0 0   0 0 0 0 0   0 0 0 0 0  0 0 0 0.08 0" type="matrix" in="shadowBlurOuter1"></feColorMatrix>
        </filter>
    </defs>
    <g id="代码分析-体验版" stroke="none" stroke-width="1" fill="none" fill-rule="evenodd">
        <g id="0-1-代码仓库认证引导页" transform="translate(-581.000000, -326.000000)">
            <g id="Group" transform="translate(552.000000, 311.000000)">
                <g id="编组" transform="translate(16.000000, 0.000000)">
                    <g id="Group" transform="translate(16.000000, 17.000000)">
                        <g id="Rectangle">
                            <use fill="black" fill-opacity="1" filter="url(#filter-2)" xlink:href="#path-1"></use>
                            <use fill="#F2F4F6" fill-rule="evenodd" xlink:href="#path-1"></use>
                        </g>
                        <g id="issue" transform="translate(6.000000, 13.000000)">
                            <path d="M2,0 L122,0 C123.104569,0 124,0.8954305 124,2 L124,75 C124,76.1045695 123.104569,77 122,77 L2,77 C0.8954305,77 0,76.1045695 0,75 L0,2 C0,0.8954305 0.8954305,0 2,0 Z" id="Rectangle" fill="#FFFFFF"></path>
                            <g id="分组-4" transform="translate(58.000000, 11.000000)" fill="#CFD8E5" fill-rule="nonzero">
                                <rect id="Rectangle-Copy-12" x="0" y="0" width="40" height="4" rx="1"></rect>
                                <rect id="Rectangle-Copy-13" opacity="0.5" x="0" y="7" width="24" height="3" rx="1"></rect>
                            </g>
                            <path d="M109.777299,10 L110.062734,10.2055136 C110.068443,10.2112223 110.793449,10.730715 111.912357,11.1874118 C113.002721,11.6326913 114.058832,11.6498174 114.070249,11.6498174 L114.544072,11.6555261 L114.544072,16.4565519 C114.538364,18.8656279 111.438534,21.4117129 109.77159,21.4117129 C108.104647,21.4117129 105.010525,18.8656279 105.010525,16.4565519 L105.010525,11.6555261 L105.484348,11.6498174 C105.495766,11.6498174 106.551877,11.6269826 107.642241,11.1874118 C108.629512,10.784444 109.305669,10.3325867 109.458943,10.2279232 L109.491863,10.2055136 L109.491863,10.2055136 L109.777299,10 Z M111.792474,13.8419624 L109.326311,16.6734829 L108.030433,15.5717017 L107.408184,16.3024167 L109.429068,18.0264474 L112.51748,14.4699206 L111.792474,13.8419624 Z" id="Combined-Shape" fill="#0066FF" fill-rule="nonzero"></path>
                            <path d="M109.777299,33 L110.062734,33.2055136 C110.068443,33.2112223 110.793449,33.730715 111.912357,34.1874118 C113.002721,34.6326913 114.058832,34.6498174 114.070249,34.6498174 L114.544072,34.6555261 L114.544072,39.4565519 C114.538364,41.8656279 111.438534,44.4117129 109.77159,44.4117129 C108.104647,44.4117129 105.010525,41.8656279 105.010525,39.4565519 L105.010525,34.6555261 L105.484348,34.6498174 C105.495766,34.6498174 106.551877,34.6269826 107.642241,34.1874118 C108.629512,33.784444 109.305669,33.3325867 109.458943,33.2279232 L109.491863,33.2055136 L109.491863,33.2055136 L109.777299,33 Z M111.792474,36.8419624 L109.326311,39.6734829 L108.030433,38.5717017 L107.408184,39.3024167 L109.429068,41.0264474 L112.51748,37.4699206 L111.792474,36.8419624 Z" id="Combined-Shape" fill="#0066FF" fill-rule="nonzero" opacity="0.203701"></path>
                            <path d="M109.777299,56 L110.062734,56.2055136 C110.068443,56.2112223 110.793449,56.730715 111.912357,57.1874118 C113.002721,57.6326913 114.058832,57.6498174 114.070249,57.6498174 L114.544072,57.6555261 L114.544072,62.4565519 C114.538364,64.8656279 111.438534,67.4117129 109.77159,67.4117129 C108.104647,67.4117129 105.010525,64.8656279 105.010525,62.4565519 L105.010525,57.6555261 L105.484348,57.6498174 C105.495766,57.6498174 106.551877,57.6269826 107.642241,57.1874118 C108.629512,56.784444 109.305669,56.3325867 109.458943,56.2279232 L109.491863,56.2055136 L109.491863,56.2055136 L109.777299,56 Z M111.792474,59.8419624 L109.326311,62.6734829 L108.030433,61.5717017 L107.408184,62.3024167 L109.429068,64.0264474 L112.51748,60.4699206 L111.792474,59.8419624 Z" id="Combined-Shape" fill="#0066FF" fill-rule="nonzero" opacity="0.203701"></path>
                            <g id="github" transform="translate(39.000000, 55.000000)" fill="#0085A1" fill-rule="nonzero">
                                <path d="M0,6.9830924 C0,6.03693406 0.184706718,5.13222674 0.553682656,4.26852035 C0.922644921,3.40481396 1.41941166,2.66140968 2.04399654,2.03829386 C2.66811657,1.4156418 3.41328719,0.92004349 4.27948103,0.551485298 C5.13922999,0.184813293 6.06497848,-0.00283798993 6.99998814,0 C7.94792599,0 8.85475258,0.183854606 9.72049525,0.552399158 C10.5866891,0.92050724 11.3318597,1.41610555 11.9559797,2.03922136 C12.5805646,2.66187343 13.077345,3.40529135 13.4462936,4.26944785 C13.8140251,5.12682062 14.0024331,6.050066 14,6.98262865 C14,8.50097219 13.5555864,9.86704218 12.6668203,11.0812751 C11.7784918,12.2950579 10.6368238,13.138482 9.2422402,13.6111111 C9.16908212,13.6111111 9.11443573,13.5976078 9.0783147,13.5705603 C9.04172882,13.5435264 9.02094761,13.5160424 9.01643589,13.4885585 C9.01108096,13.4479413 9.00881863,13.4069777 9.00966833,13.3660194 C9.00234127,13.353442 8.99772658,13.3394772 8.99611952,13.3250185 L8.99611952,11.5656343 C8.99611952,11.0114535 8.80011986,10.5383743 8.40812052,10.147297 C9.45630038,9.96527526 10.2402991,9.57689859 10.7596654,8.9812804 C11.279018,8.38564857 11.5391387,7.66477707 11.5391387,6.81908871 C11.5391387,6.02791822 11.2839809,5.34128235 10.7732142,4.7596312 C10.955665,4.17751631 10.9236045,3.56386644 10.6779214,2.91823149 C10.4222987,2.90019982 10.1445687,2.94346493 9.84380168,3.04798591 C9.54302094,3.15250689 9.31992366,3.25027622 9.1736075,3.34083015 C9.02818002,3.43184784 8.89585016,3.51836442 8.77753396,3.60035263 C8.24870673,3.45483072 7.6584382,3.38184472 7.00722055,3.38184472 C6.35507322,3.38184472 5.76979491,3.45483072 5.2499911,3.60035263 C5.14973542,3.52738026 5.03322389,3.44807907 4.90135888,3.36156249 C4.76901536,3.27505955 4.53915051,3.17053857 4.21083466,3.04798591 C3.88295631,2.92498314 3.58671463,2.87271583 3.32205492,2.89119762 C3.06689715,3.54584841 3.03979954,4.16850047 3.24031092,4.75961756 C2.73903247,5.34173246 2.48838641,6.02791822 2.48838641,6.81907507 C2.48838641,7.66476343 2.74354418,8.38339802 3.25387339,8.97406501 C3.76418893,9.56519574 4.54818761,9.95625942 5.60540457,10.147297 C5.33475618,10.4064686 5.1449869,10.7381781 5.05895432,11.1024712 C4.28399274,11.293045 3.74160304,11.1565253 3.43179887,10.6924619 C2.85734867,9.85623954 2.34250775,9.5561799 1.8868386,9.79271948 C1.82271761,9.85623954 1.83219221,9.92202379 1.91393621,9.9905087 C1.99613138,10.0585435 2.1189593,10.1495475 2.28334965,10.263098 C2.44727515,10.3770849 2.57013041,10.5018881 2.65231191,10.6383942 C2.66134901,10.6564259 2.68662826,10.7226466 2.72773952,10.8361971 C2.76700208,10.9458506 2.80795412,11.0548947 2.85058111,11.1632906 C2.89122752,11.2678116 2.96889731,11.3840627 3.08315298,11.5111028 C3.19695747,11.6386203 3.32928733,11.7454055 3.4796777,11.8319084 C3.63006807,11.9179612 3.83734701,11.9819451 4.10154188,12.022946 C4.36573674,12.0634831 4.66650381,12.0657473 5.00385676,12.0296976 L5.00385676,13.4002687 C5.00385676,13.4137856 5.0016009,13.4363184 4.99708919,13.4687536 C4.99257748,13.5002886 4.98354038,13.5228214 4.96999158,13.5363383 C4.95644277,13.5503054 4.93793109,13.5638223 4.91489402,13.5777893 C4.8877575,13.5923728 4.85717737,13.5993754 4.82638245,13.5980579 C4.78979657,13.5980579 4.74418727,13.5935568 4.68954088,13.5845546 C3.3039944,13.1024596 2.17631272,12.2590218 1.30562083,11.0542549 C0.435339106,9.84948789 0,8.49288385 0,6.98355615 L0,6.9830924 Z" id="路径"></path>
                            </g>
                            <g id="gitlab" transform="translate(39.000000, 32.000000)" fill-rule="nonzero">
                                <polygon id="路径" fill="#E24329" points="7 13.4473684 9.57894737 5.34210526 4.42105263 5.34210526"></polygon>
                                <polygon id="路径" fill="#FC6D26" points="7 13.4473684 4.39257186 5.34210526 0.736842105 5.34210526"></polygon>
                                <path d="M0.806687107,5.34210526 L0.0253903711,7.80463403 C-0.044838549,8.02890805 0.0341689861,8.27560947 0.218519901,8.41465937 L7,13.4473684 L0.806687107,5.34210526 Z" id="路径" fill="#FCA326"></path>
                                <path d="M0.736842105,5.34210526 L4.42105263,5.34210526 L2.83634968,0.375750384 C2.75577157,0.120363907 2.40212317,0.120363907 2.31706849,0.375750384 L0.736842105,5.34210526 Z" id="路径" fill="#E24329"></path>
                                <polygon id="路径" fill="#FC6D26" points="7 13.4473684 9.60742814 5.34210526 13.2631579 5.34210526 7 13.4473684"></polygon>
                                <path d="M13.1933129,5.34210526 L13.9746096,7.80463403 C14.0448385,8.02890805 13.965831,8.27560947 13.7814801,8.41465937 L7,13.4473684 L13.1933129,5.34210526 Z" id="路径" fill="#FCA326"></path>
                                <path d="M13.2631579,5.34210526 L9.57894737,5.34210526 L11.1636503,0.375750384 C11.2442284,0.120363907 11.5978768,0.120363907 11.6829315,0.375750384 L13.2631579,5.34210526 Z" id="路径" fill="#E24329"></path>
                            </g>
                            <path d="M40.9444444,11.125 L47.9444444,11.125 L47.9444444,10 L41.6111111,10 L40.9444444,11.125 Z M39.7777778,13 L51.8333333,13 L51.2002188,11.875 L40.4108923,11.875 L39.7777778,13 Z M51.8333333,19 L40.1666667,19 L40.7753623,20.125 L51.2246377,20.125 L51.8333333,19 Z M50.1439665,10 L49.5,10 L49.5,11.125 L50.6666667,11.125 L50.1439665,10 Z M53,16.75 L49.8888889,16.75 L49.8888889,17.875 L52.3879781,17.875 L53,16.75 L53,16.75 Z M39.6481481,17.875 L42.8888889,17.875 L42.8888889,16.75 L39,16.75 L39.6481481,17.875 Z M43.6666667,16.75 L49.1111111,16.75 L49.1111111,17.875 L43.6666667,17.875 L43.6666667,16.75 Z M50.6666667,20.875 L43.6666667,20.875 L43.6666667,22 L50.0688019,22 L50.6666667,20.875 L50.6666667,20.875 Z M42.0625,22 L42.5,22 L42.5,20.875 L41.3333333,20.875 L42.0625,22 Z M39,15.25 L44.8333333,15.25 L44.8333333,14.125 L39.5668016,14.125 L39,15.25 Z M52.3859649,14.125 L46,14.125 L46,15.25 L53,15.25 L52.3859649,14.125 L52.3859649,14.125 Z" id="形状" fill="#415B94" fill-rule="nonzero"></path>
                            <g id="分组-4" transform="translate(58.000000, 57.000000)" fill="#CFD8E5" fill-rule="nonzero">
                                <rect id="Rectangle-Copy-12" x="0" y="0" width="32" height="4" rx="1"></rect>
                                <rect id="Rectangle-Copy-13" opacity="0.5" x="0" y="7" width="24" height="3" rx="1"></rect>
                            </g>
                            <g id="分组-4" transform="translate(58.000000, 34.000000)" fill="#CFD8E5" fill-rule="nonzero">
                                <rect id="Rectangle-Copy-12" x="0" y="0" width="40" height="4" rx="1"></rect>
                                <rect id="Rectangle-Copy-13" opacity="0.5" x="0" y="7" width="19" height="3" rx="1"></rect>
                            </g>
                            <g id="sidebar" transform="translate(0.000000, 1.000000)">
                                <path d="M2,0 L30,0 L30,0 L30,77 L2,77 C0.8954305,77 1.3527075e-16,76.1045695 0,75 L0,2 C-1.3527075e-16,0.8954305 0.8954305,2.02906125e-16 2,0 Z" id="Rectangle" fill="#0066FF"></path>
                                <rect id="矩形" fill="#FFFFFF" opacity="0.949999988" x="5" y="6" width="6" height="6" rx="1"></rect>
                                <rect id="矩形" fill="#FFFFFF" opacity="0.498488653" x="14" y="8" width="9" height="2" rx="1"></rect>
                                <rect id="矩形" fill="#FFFFFF" opacity="0.500023251" x="5" y="20" width="19" height="2" rx="1"></rect>
                                <rect id="矩形" fill="#FFFFFF" opacity="0.500023251" x="5" y="29" width="16" height="2" rx="1"></rect>
                                <rect id="矩形" fill="#FFFFFF" opacity="0.500023251" x="5" y="38" width="18" height="2" rx="1"></rect>
                                <rect id="矩形" fill="#FFFFFF" opacity="0.500023251" x="5" y="47" width="19" height="2" rx="1"></rect>
                            </g>
                        </g>
                        <g id="title">
                            <path d="M3,0 L133,0 C134.656854,-3.04359188e-16 136,1.34314575 136,3 L136,9 L136,9 L0,9 L0,3 C-2.02906125e-16,1.34314575 1.34314575,-1.39730022e-16 3,0 Z" id="Rectangle-Copy-10" fill="#606C80" opacity="0.200000003"></path>
                            <circle id="Oval" fill="#FFFFFF" opacity="0.746814546" cx="5.5" cy="4.5" r="1.5"></circle>
                            <circle id="Oval" fill="#FFFFFF" opacity="0.746814546" cx="11.5" cy="4.5" r="1.5"></circle>
                            <circle id="Oval" fill="#FFFFFF" opacity="0.746814546" cx="17.5" cy="4.5" r="1.5"></circle>
                        </g>
                    </g>
                </g>
            </g>
        </g>
    </g>
</svg>