<?xml version="1.0" encoding="UTF-8"?>
<svg width="168px" height="128px" viewBox="0 0 168 128" version="1.1" xmlns="http://www.w3.org/2000/svg" xmlns:xlink="http://www.w3.org/1999/xlink">
    <!-- Generator: Sketch 57.1 (83088) - https://sketch.com -->
    <title>引导1</title>
    <desc>Created with Sketch.</desc>
    <defs>
        <rect id="path-1" x="0" y="0" width="136" height="96" rx="3"></rect>
        <filter x="-3.7%" y="-4.2%" width="107.4%" height="110.4%" filterUnits="objectBoundingBox" id="filter-2">
            <feOffset dx="0" dy="1" in="SourceAlpha" result="shadowOffsetOuter1"></feOffset>
            <feGaussianBlur stdDeviation="1.5" in="shadowOffsetOuter1" result="shadowBlurOuter1"></feGaussianBlur>
            <feColorMatrix values="0 0 0 0 0   0 0 0 0 0   0 0 0 0 0  0 0 0 0.08 0" type="matrix" in="shadowBlurOuter1"></feColorMatrix>
        </filter>
    </defs>
    <g id="代码分析-" stroke="none" stroke-width="1" fill="none" fill-rule="evenodd">
        <g id="代码分析引导页" transform="translate(-495.000000, -434.000000)">
            <g id="Empty-diagram" transform="translate(474.000000, 309.000000)">
                <g id="task-default-settings" transform="translate(21.000000, 125.000000)">
                    <g id="window" transform="translate(16.000000, 16.000000)">
                        <g id="Rectangle">
                            <use fill="black" fill-opacity="1" filter="url(#filter-2)" xlink:href="#path-1"></use>
                            <use fill="#F2F4F6" fill-rule="evenodd" xlink:href="#path-1"></use>
                        </g>
                        <g id="issue" transform="translate(4.000000, 13.000000)">
                            <rect id="Rectangle" fill="#FFFFFF" x="0" y="0" width="128" height="79" rx="2"></rect>
                            <g id="分组-4" transform="translate(57.000000, 11.000000)" fill="#CFD8E5" fill-rule="nonzero">
                                <rect id="Rectangle-Copy-12" x="0" y="0" width="35" height="4" rx="1"></rect>
                                <rect id="Rectangle-Copy-13" opacity="0.5" x="0" y="7" width="24" height="3" rx="1"></rect>
                            </g>
                            <g id="paragraph" transform="translate(40.000000, 56.000000)" fill-rule="nonzero">
                                <rect id="Rectangle" fill="#919DAF" x="0" y="0" width="4" height="4"></rect>
                                <rect id="Rectangle" fill="#CFD8E5" x="6" y="1" width="6" height="2"></rect>
                                <rect id="Rectangle" fill="#919DAF" x="0" y="6" width="4" height="4"></rect>
                                <rect id="Rectangle" fill="#CFD8E5" x="6" y="7" width="6" height="2"></rect>
                            </g>
                            <g id="design-system" transform="translate(40.000000, 33.000000)">
                                <path d="M6,11 L2,11 C1.44771525,11 1,10.5522847 1,10 L1,6 L3,6 L3,9 L6,9 L6,11 Z" id="Path" fill="#CFD8E5"></path>
                                <path d="M11,6 L9,6 L9,3 L6,3 L6,1 L10,1 C10.5522847,1 11,1.44771525 11,2 L11,6 Z" id="Path" fill="#CFD8E5"></path>
                                <rect id="Rectangle" fill="#919DAF" x="0" y="0" width="4" height="4"></rect>
                                <rect id="Rectangle" fill="#919DAF" x="8" y="8" width="4" height="4"></rect>
                            </g>
                            <g id="stack" transform="translate(40.000000, 10.000000)" fill-rule="nonzero">
                                <polygon id="Path" fill="#CFD8E5" points="6 7.236 1.764 5.118 0 6 6 9 12 6 10.236 5.118"></polygon>
                                <polygon id="Path" fill="#CFD8E5" points="6 10.236 1.764 8.118 0 9 6 12 12 9 10.236 8.118"></polygon>
                                <polygon id="Path" fill="#919DAF" points="0 3 6 6 12 3 6 0"></polygon>
                            </g>
                            <g id="分组-4" transform="translate(57.000000, 57.000000)" fill="#CFD8E5" fill-rule="nonzero">
                                <rect id="Rectangle-Copy-12" x="0" y="0" width="32" height="4" rx="1"></rect>
                                <rect id="Rectangle-Copy-13" opacity="0.5" x="0" y="7" width="24" height="3" rx="1"></rect>
                            </g>
                            <g id="分组-4" transform="translate(57.000000, 34.000000)" fill="#CFD8E5" fill-rule="nonzero">
                                <rect id="Rectangle-Copy-12" x="0" y="0" width="38" height="4" rx="1"></rect>
                                <rect id="Rectangle-Copy-13" opacity="0.5" x="0" y="7" width="19" height="3" rx="1"></rect>
                            </g>
                            <g id="switch" transform="translate(102.000000, 10.000000)">
                                <rect id="Rectangle" fill="#3385FF" x="0" y="0" width="16" height="10" rx="5"></rect>
                                <circle id="Oval" fill="#FFFFFF" cx="11" cy="5" r="3"></circle>
                            </g>
                            <g id="switch" transform="translate(102.000000, 33.000000)">
                                <rect id="Rectangle" fill="#3385FF" opacity="0.5" x="0" y="0" width="16" height="10" rx="5"></rect>
                                <circle id="Oval" fill="#FFFFFF" cx="5" cy="5" r="3"></circle>
                            </g>
                            <g id="switch" transform="translate(102.000000, 56.000000)">
                                <rect id="Rectangle" fill="#3385FF" opacity="0.5" x="0" y="0" width="16" height="10" rx="5"></rect>
                                <circle id="Oval" fill="#FFFFFF" cx="5" cy="5" r="3"></circle>
                            </g>
                            <g id="sidebar" transform="translate(-0.000000, 0.000000)">
                                <path d="M2,0 L30,0 L30,0 L30,79 L2,79 C0.8954305,79 -1.64108609e-15,78.1045695 -1.77635684e-15,77 L-1.77635684e-15,2 C-1.91162759e-15,0.8954305 0.8954305,2.02906125e-16 2,0 Z" id="Rectangle" fill="#3385FF"></path>
                                <rect id="矩形" fill="#FFFFFF" opacity="0.949999988" x="5" y="7" width="6" height="6" rx="1"></rect>
                                <rect id="矩形" fill="#FFFFFF" opacity="0.498488653" x="14" y="9" width="9" height="2" rx="1"></rect>
                                <rect id="矩形" fill="#FFFFFF" opacity="0.500023251" x="5" y="21" width="19" height="2" rx="1"></rect>
                                <rect id="矩形" fill="#FFFFFF" opacity="0.500023251" x="5" y="30" width="16" height="2" rx="1"></rect>
                                <rect id="矩形" fill="#FFFFFF" opacity="0.500023251" x="5" y="39" width="18" height="2" rx="1"></rect>
                                <rect id="矩形" fill="#FFFFFF" opacity="0.500023251" x="5" y="48" width="19" height="2" rx="1"></rect>
                            </g>
                        </g>
                        <g id="title">
                            <path d="M3,0 L133,0 C134.656854,-3.04359188e-16 136,1.34314575 136,3 L136,9 L136,9 L0,9 L0,3 C-2.02906125e-16,1.34314575 1.34314575,-5.83819232e-16 3,0 Z" id="Rectangle-Copy-10" fill="#606C80" opacity="0.200000003"></path>
                            <circle id="Oval" fill="#FFFFFF" opacity="0.746814546" cx="5.5" cy="4.5" r="1.5"></circle>
                            <circle id="Oval" fill="#FFFFFF" opacity="0.746814546" cx="11.5" cy="4.5" r="1.5"></circle>
                            <circle id="Oval" fill="#FFFFFF" opacity="0.746814546" cx="17.5" cy="4.5" r="1.5"></circle>
                        </g>
                    </g>
                </g>
            </g>
        </g>
    </g>
</svg>