<?xml version="1.0" encoding="UTF-8"?>
<svg width="18px" height="18px" viewBox="0 0 18 18" version="1.1" xmlns="http://www.w3.org/2000/svg" xmlns:xlink="http://www.w3.org/1999/xlink">
    <!-- Generator: Sketch 60.1 (88133) - https://sketch.com -->
    <title>Content / CI / Status / Success</title>
    <desc>Created with Sketch.</desc>
    <g id="代码分析-" stroke="none" stroke-width="1" fill="none" fill-rule="evenodd">
        <g id="1-4-扫描任务" transform="translate(-894.000000, -352.000000)">
            <g id="编组" transform="translate(250.000000, 169.000000)">
                <g id="编组-14" transform="translate(0.000000, 42.000000)">
                    <g id="编组-13" transform="translate(0.002639, 40.000000)">
                        <g id="编组-4备份-2" transform="translate(0.000000, 88.000000)">
                            <g id="Content-/-CI-/-Status-/-Success" transform="translate(644.000000, 13.000000)">
                                <circle id="Oval" fill="#69CE30" fill-rule="evenodd" cx="9" cy="9" r="9"></circle>
                                <path d="M7.31835087,13.3154301 L3.89355435,9.91114137 C3.79785134,9.81543837 3.75,9.69239179 3.75,9.54200162 C3.75,9.39161146 3.79785134,9.26856488 3.89355435,9.17286188 L4.6523416,8.43458239 C4.7480446,8.32520775 4.86767312,8.27052028 5.01122746,8.27052028 C5.15478181,8.27052028 5.28124645,8.32520775 5.39062109,8.43458239 L7.68749061,10.7314519 L12.6093539,5.80958865 C12.7187285,5.70021401 12.8451932,5.64552654 12.9887475,5.64552654 C13.1323018,5.64552654 13.2519304,5.70021401 13.3476334,5.80958865 L14.1064206,6.54786814 C14.2021236,6.64357114 14.249975,6.76661772 14.249975,6.91700788 C14.249975,7.06739804 14.2021236,7.19044463 14.1064206,7.28614763 L8.05663036,13.3154301 C7.96092736,13.4248048 7.83788077,13.4794922 7.68749061,13.4794922 C7.53710045,13.4794922 7.41405387,13.4248048 7.31835087,13.3154301 Z" id="c" fill="#FFFFFF" fill-rule="nonzero"></path>
                            </g>
                        </g>
                    </g>
                </g>
            </g>
        </g>
    </g>
</svg>