<svg xmlns="http://www.w3.org/2000/svg" width="74" height="74" viewBox="0 0 74 74">
  <g fill="none" fill-rule="evenodd">
    <path fill="#D94F42" fill-rule="nonzero" d="M25.1214469,1.95408815 C42.5476865,-3.92670669 61.6525984,3.84112573 70.0308676,20.2137303 C68.8271588,20.4017347 67.6071268,20.4637102 66.3905628,20.3986515 L40.1898784,20.4567695 C37.048361,19.9072423 33.8163895,20.2269681 30.8434354,21.3813752 C26.3491123,23.1753289 22.8427025,26.8145281 21.216969,31.3724004 C19.6717513,35.8056432 20.0097072,40.6783167 22.1521417,44.8557936 C16.8264127,35.5040672 11.331613,26.247443 5.937199,16.9432678 C10.4666787,9.9337726 17.2245236,4.65368283 25.1214469,1.95408815 Z"/>
    <path fill="#19A05E" fill-rule="nonzero" d="M1.28246965,27.2882849 C2.26862818,23.622333 3.81939432,20.132218 5.87908096,16.9432678 C11.2787784,26.2527266 16.7682946,35.5093506 22.0940235,44.8557936 C24.2122235,48.8742956 27.8646413,51.8661163 32.2215513,53.1515987 C36.5784612,54.4370812 41.2699702,53.9070905 45.2303005,51.6820256 C47.3798326,50.4434692 49.2519131,48.7764004 50.7303836,46.784257 C45.5895758,55.8612435 40.3747996,64.8959623 35.2128579,73.9570983 C17.4367029,73.1086814 2.78530739,59.7204137 0.342013547,42.0925434 C-0.323222813,37.1478347 -0.00541897823,32.1204292 1.27718616,27.2988518 L1.28246965,27.2882849 Z"/>
    <path fill="#F2F2F2" fill-rule="nonzero" d="M30.7958843,21.3813752 C33.7689013,20.2272315 37.0007998,19.9075129 40.1423273,20.4567695 C44.9457482,21.4165107 49.1090031,24.3855941 51.5810209,28.6144337 C54.8603506,34.318548 54.5326174,41.4070658 50.7409505,46.784257 C49.2623685,48.7762984 47.3903111,50.4433466 45.2408673,51.6820256 C41.2805371,53.9070905 36.5890282,54.4370811 32.2321182,53.1515987 C27.8752083,51.8661162 24.2227905,48.8742956 22.1045905,44.8557936 C19.9615472,40.6784862 19.6235738,35.8055594 21.1694178,31.3724004 C22.7951514,26.8145281 26.3015612,23.1753289 30.7958843,21.3813752 L30.7958843,21.3813752 Z M34.7426299,23.7536494 C28.8702776,24.7720737 24.3698483,29.535988 23.6868287,35.4567307 C23.0038091,41.3774733 26.3013284,47.0409626 31.7875485,49.369717 C37.2737687,51.6984715 43.6383875,50.1363025 47.4229369,45.5320767 C49.8010767,42.6143019 50.8507071,38.8349774 50.3178114,35.1087218 C49.7849157,31.3824662 47.718054,28.0488345 44.6174189,25.914585 C41.7303531,23.9462607 38.1927391,23.1735912 34.7479133,23.7589328 L34.7426299,23.7536494 Z"/>
    <path fill="#FDCA41" fill-rule="nonzero" d="M40.1476107,20.4567695 C48.8829334,20.4567695 57.6164948,20.4373968 66.3482951,20.3986515 C67.5648588,20.4639028 68.7849109,20.4019262 69.9885999,20.2137303 C76.5951175,33.2626866 74.9235849,48.9746789 65.7195632,60.3416186 C60.6495229,66.5844496 53.6827446,71.0045328 45.8748827,72.9321068 C42.3905251,73.7747914 38.8046961,74.121635 35.2234248,73.9623818 C40.3853665,64.9012457 45.6001428,55.8665269 50.7409505,46.7895404 C54.5326174,41.4123492 54.8603505,34.3238315 51.5810209,28.6197172 C49.1112926,24.3900854 44.950028,21.419127 40.1476107,20.4567695 L40.1476107,20.4567695 Z"/>
    <path fill="#4B8BF5" fill-rule="nonzero" d="M34.7426299,23.7536494 C38.600614,23.0889209 42.5565638,24.1412808 45.5743156,26.6350891 C48.5920674,29.1288974 50.3709674,32.8157002 50.4450767,36.7298302 C50.5631435,42.6719276 46.7662431,47.9867048 41.1067628,49.801297 C35.4472826,51.6158891 29.2678376,49.4998153 25.9086826,44.596904 C23.32333,40.815532 22.8408287,35.9781346 24.6283382,31.7605959 C26.4158476,27.5430572 30.2274457,24.5256178 34.7426299,23.7536494 L34.7426299,23.7536494 Z"/>
  </g>
</svg>
