<svg xmlns="http://www.w3.org/2000/svg" width="74" height="74" viewBox="0 0 74 74">
  <defs>
    <radialGradient id="safari-a" fx="50%" fy="50%">
      <stop offset="0%" stop-color="#24CAE9"/>
      <stop offset="100%" stop-color="#2975EF"/>
    </radialGradient>
  </defs>
  <g fill="none">
    <circle cx="37" cy="37" r="37" fill="url(#safari-a)"/>
    <polygon fill="#FFF" points="20.691 33.568 29.114 33.568 24.902 64.627" transform="rotate(45 24.902 49.098)"/>
    <polygon fill="#FF514F" points="51.206 42.703 42.783 42.703 46.995 11.644" transform="rotate(45 46.995 27.173)"/>
    <path fill="#FFF" d="M36.9758065,5.51421135 C36.9758065,5.23022027 37.2189626,5 37.5,5 C37.7895041,5 38.0241935,5.22546338 38.0241935,5.51421135 L38.0241935,8.67933704 C38.0241935,8.96332812 37.7810374,9.19354839 37.5,9.19354839 C37.2104959,9.19354839 36.9758065,8.968085 36.9758065,8.67933704 L36.9758065,5.51421135 Z M41.98594,5.82600755 C42.0303658,5.54551286 42.3065428,5.356165 42.5841201,5.40012893 C42.8700599,5.44541734 43.0665897,5.70481842 43.0214195,5.99001141 L42.5262848,9.11616916 C42.481859,9.39666385 42.2056819,9.5860117 41.9281047,9.54204777 C41.6421648,9.49675936 41.445635,9.2373583 41.4908052,8.95216529 L41.98594,5.82600755 Z M46.8856146,6.91772255 C46.9733726,6.64763099 47.27577,6.5038179 47.5430523,6.59066323 C47.818387,6.68012491 47.9719181,6.96707634 47.8826899,7.24169199 L46.9046124,10.2519054 C46.8168543,10.521997 46.5144571,10.6658101 46.2471745,10.5789647 C45.9718398,10.4895031 45.818309,10.2025516 45.907537,9.92793598 L46.8856146,6.91772255 Z M51.5541843,8.76247474 C51.6831136,8.50943683 52.0042851,8.41469966 52.2546911,8.54228797 C52.5126413,8.67372007 52.6193929,8.98115619 52.4883041,9.23843252 L51.0513671,12.0585802 C50.9224377,12.3116181 50.6012662,12.4063552 50.35086,12.2787669 C50.09291,12.1473348 49.9861584,11.8398987 50.1172473,11.5826224 L51.5541843,8.76247474 Z M55.8766933,11.3148402 C56.0436191,11.0850865 56.3756568,11.0417581 56.6030207,11.2069477 C56.8372343,11.3771139 56.8945782,11.6974646 56.7248563,11.9310666 L54.8644422,14.4917071 C54.6975163,14.7214607 54.3654787,14.7647892 54.1381148,14.5995996 C53.9039011,14.4294334 53.8465573,14.1090827 54.0162792,13.8754806 L55.8766933,11.3148402 Z M59.7467073,14.5119711 C59.9475194,14.3111591 60.2822469,14.3203062 60.4809704,14.5190296 C60.6856807,14.7237399 60.6922044,15.0491171 60.488029,15.2532928 L58.2499471,17.4913746 C58.049135,17.6921866 57.7144072,17.6830395 57.5156838,17.4843161 C57.3109736,17.2796058 57.3044497,16.9542286 57.5086254,16.750053 L59.7467073,14.5119711 Z M63.0689334,18.2751437 C63.298687,18.1082179 63.6278628,18.1696153 63.7930523,18.3969793 C63.9632185,18.631193 63.9187619,18.9535848 63.6851598,19.1233066 L61.1245194,20.9837208 C60.8947658,21.1506467 60.5655901,21.0892491 60.4004004,20.8618852 C60.2302341,20.6276715 60.2746908,20.3052797 60.5082928,20.1355579 L63.0689334,18.2751437 Z M65.7615674,22.5116959 C66.0146053,22.3827667 66.3301237,22.4949026 66.457712,22.7453089 C66.5891441,23.0032588 66.4948016,23.3147269 66.2375253,23.4458157 L63.4173777,24.8827527 C63.1643398,25.0116819 62.8488214,24.899546 62.7212331,24.64914 C62.589801,24.3911898 62.6841435,24.0797217 62.9414198,23.9486329 L65.7615674,22.5116959 Z M67.7583081,27.1173101 C68.0283997,27.029552 68.3224915,27.1896652 68.4093368,27.4569477 C68.4987984,27.7322825 68.3568931,28.0251574 68.0822775,28.1143854 L65.072064,29.092463 C64.8019724,29.1802212 64.5078806,29.0201078 64.4210353,28.7528255 C64.3315735,28.4774907 64.473479,28.1846158 64.7480946,28.0953876 L67.7583081,27.1173101 Z M69.0099886,31.9785805 C69.2904833,31.9341544 69.5559072,32.1383026 69.5998711,32.4158799 C69.6451595,32.7018197 69.4591855,32.96889 69.1739924,33.01406 L66.0478348,33.5091948 C65.7673401,33.5536208 65.5019161,33.3494728 65.4579522,33.0718953 C65.4126638,32.7859555 65.5986378,32.5188852 65.8838308,32.4737152 L69.0099886,31.9785805 Z M69.4857886,36.9758065 C69.7697796,36.9758065 70,37.2189626 70,37.5 C70,37.7895041 69.7745366,38.0241935 69.4857886,38.0241935 L66.320663,38.0241935 C66.036672,38.0241935 65.8064516,37.7810374 65.8064516,37.5 C65.8064516,37.2104959 66.031915,36.9758065 66.320663,36.9758065 L69.4857886,36.9758065 Z M69.1739924,41.98594 C69.4544871,42.0303658 69.643835,42.3065428 69.5998711,42.5841201 C69.5545827,42.8700599 69.2951815,43.0665897 69.0099886,43.0214195 L65.8838308,42.5262848 C65.603336,42.481859 65.4139883,42.2056819 65.4579522,41.9281047 C65.5032407,41.6421648 65.7626416,41.445635 66.0478348,41.4908052 L69.1739924,41.98594 Z M68.0822775,46.8856146 C68.3523691,46.9733726 68.496182,47.27577 68.4093368,47.5430523 C68.3198752,47.818387 68.0329237,47.9719181 67.7583081,47.8826899 L64.7480946,46.9046124 C64.478003,46.8168543 64.3341899,46.5144571 64.4210353,46.2471745 C64.5104969,45.9718398 64.7974484,45.818309 65.072064,45.907537 L68.0822775,46.8856146 Z M66.2375253,51.5541843 C66.4905632,51.6831136 66.5853003,52.0042851 66.457712,52.2546911 C66.3262799,52.5126413 66.0188437,52.6193929 65.7615674,52.4883041 L62.9414198,51.0513671 C62.6883819,50.9224377 62.5936448,50.6012662 62.7212331,50.35086 C62.8526652,50.09291 63.1601014,49.9861584 63.4173777,50.1172473 L66.2375253,51.5541843 Z M63.6851598,55.8766933 C63.9149135,56.0436191 63.958242,56.3756568 63.7930523,56.6030207 C63.6228861,56.8372343 63.3025355,56.8945782 63.0689334,56.7248563 L60.5082928,54.8644422 C60.2785392,54.6975163 60.2352108,54.3654787 60.4004004,54.1381148 C60.5705666,53.9039011 60.8909174,53.8465573 61.1245194,54.0162792 L63.6851598,55.8766933 Z M60.488029,59.7467073 C60.6888408,59.9475194 60.6796938,60.2822469 60.4809704,60.4809704 C60.27626,60.6856807 59.9508828,60.6922044 59.7467073,60.488029 L57.5086254,58.2499471 C57.3078134,58.049135 57.3169605,57.7144072 57.5156838,57.5156838 C57.7203942,57.3109736 58.0457714,57.3044497 58.2499471,57.5086254 L60.488029,59.7467073 Z M56.7248563,63.0689334 C56.8917821,63.298687 56.8303846,63.6278628 56.6030207,63.7930523 C56.368807,63.9632185 56.0464152,63.9187619 55.8766933,63.6851598 L54.0162792,61.1245194 C53.8493533,60.8947658 53.9107509,60.5655901 54.1381148,60.4004004 C54.3723285,60.2302341 54.6947203,60.2746908 54.8644422,60.5082928 L56.7248563,63.0689334 Z M52.4883041,65.7615674 C52.6172333,66.0146053 52.5050974,66.3301237 52.2546911,66.457712 C51.9967412,66.5891441 51.6852731,66.4948016 51.5541843,66.2375253 L50.1172473,63.4173777 C49.9883181,63.1643398 50.100454,62.8488214 50.35086,62.7212331 C50.6088102,62.589801 50.9202783,62.6841435 51.0513671,62.9414198 L52.4883041,65.7615674 Z M47.8826899,67.7583081 C47.970448,68.0283997 47.8103348,68.3224915 47.5430523,68.4093368 C47.2677175,68.4987984 46.9748426,68.3568931 46.8856146,68.0822775 L45.907537,65.072064 C45.8197788,64.8019724 45.9798922,64.5078806 46.2471745,64.4210353 C46.5225093,64.3315735 46.8153842,64.473479 46.9046124,64.7480946 L47.8826899,67.7583081 Z M43.0214195,69.0099886 C43.0658456,69.2904833 42.8616974,69.5559072 42.5841201,69.5998711 C42.2981803,69.6451595 42.03111,69.4591855 41.98594,69.1739924 L41.4908052,66.0478348 C41.4463792,65.7673401 41.6505272,65.5019161 41.9281047,65.4579522 C42.2140445,65.4126638 42.4811148,65.5986378 42.5262848,65.8838308 L43.0214195,69.0099886 Z M38.0241935,69.4857886 C38.0241935,69.7697796 37.7810374,70 37.5,70 C37.2104959,70 36.9758065,69.7745366 36.9758065,69.4857886 L36.9758065,66.320663 C36.9758065,66.036672 37.2189626,65.8064516 37.5,65.8064516 C37.7895041,65.8064516 38.0241935,66.031915 38.0241935,66.320663 L38.0241935,69.4857886 Z M33.01406,69.1739924 C32.9696342,69.4544871 32.6934572,69.643835 32.4158799,69.5998711 C32.1299401,69.5545827 31.9334103,69.2951815 31.9785805,69.0099886 L32.4737152,65.8838308 C32.518141,65.603336 32.7943181,65.4139883 33.0718953,65.4579522 C33.3578352,65.5032407 33.554365,65.7626416 33.5091948,66.0478348 L33.01406,69.1739924 Z M28.1143854,68.0822775 C28.0266274,68.3523691 27.72423,68.496182 27.4569477,68.4093368 C27.181613,68.3198752 27.0280819,68.0329237 27.1173101,67.7583081 L28.0953876,64.7480946 C28.1831457,64.478003 28.4855429,64.3341899 28.7528255,64.4210353 C29.0281602,64.5104969 29.181691,64.7974484 29.092463,65.072064 L28.1143854,68.0822775 Z M23.4458157,66.2375253 C23.3168864,66.4905632 22.9957149,66.5853003 22.7453089,66.457712 C22.4873587,66.3262799 22.3806071,66.0188437 22.5116959,65.7615674 L23.9486329,62.9414198 C24.0775623,62.6883819 24.3987338,62.5936448 24.64914,62.7212331 C24.90709,62.8526652 25.0138416,63.1601014 24.8827527,63.4173777 L23.4458157,66.2375253 Z M19.1233066,63.6851598 C18.9563809,63.9149135 18.6243433,63.958242 18.3969793,63.7930523 C18.1627656,63.6228861 18.1054219,63.3025355 18.2751437,63.0689334 L20.1355579,60.5082928 C20.3024836,60.2785392 20.6345212,60.2352108 20.8618852,60.4004004 C21.0960989,60.5705666 21.1534427,60.8909174 20.9837208,61.1245194 L19.1233066,63.6851598 Z M15.2532928,60.488029 C15.0524807,60.6888408 14.717753,60.6796938 14.5190296,60.4809704 C14.3143193,60.27626 14.3077955,59.9508828 14.5119711,59.7467073 L16.750053,57.5086254 C16.950865,57.3078134 17.2855927,57.3169605 17.4843161,57.5156838 C17.6890264,57.7203942 17.6955503,58.0457714 17.4913746,58.2499471 L15.2532928,60.488029 Z M11.9310666,56.7248563 C11.701313,56.8917821 11.3721373,56.8303846 11.2069477,56.6030207 C11.0367814,56.368807 11.0812381,56.0464152 11.3148402,55.8766933 L13.8754806,54.0162792 C14.1052343,53.8493533 14.43441,53.9107509 14.5995996,54.1381148 C14.7697658,54.3723285 14.7253091,54.6947203 14.4917071,54.8644422 L11.9310666,56.7248563 Z M9.23843252,52.4883041 C8.98539461,52.6172333 8.66987626,52.5050974 8.54228797,52.2546911 C8.41085586,51.9967412 8.50519841,51.6852731 8.76247474,51.5541843 L11.5826224,50.1172473 C11.8356603,49.9883181 12.1511786,50.100454 12.2787669,50.35086 C12.410199,50.6088102 12.3158565,50.9202783 12.0585802,51.0513671 L9.23843252,52.4883041 Z M7.24169199,47.8826899 C6.97160042,47.970448 6.67750855,47.8103348 6.59066323,47.5430523 C6.50120152,47.2677175 6.64310692,46.9748426 6.91772255,46.8856146 L9.92793598,45.907537 C10.1980275,45.8197788 10.4921194,45.9798922 10.5789647,46.2471745 C10.6684264,46.5225093 10.526521,46.8153842 10.2519054,46.9046124 L7.24169199,47.8826899 Z M5.99001141,43.0214195 C5.70951675,43.0658456 5.44409285,42.8616974 5.40012893,42.5841201 C5.35484051,42.2981803 5.54081453,42.03111 5.82600755,41.98594 L8.95216529,41.4908052 C9.23265998,41.4463792 9.49808385,41.6505272 9.54204777,41.9281047 C9.58733619,42.2140445 9.40136217,42.4811148 9.11616916,42.5262848 L5.99001141,43.0214195 Z M5.51421135,38.0241935 C5.23022027,38.0241935 5,37.7810374 5,37.5 C5,37.2104959 5.22546338,36.9758065 5.51421135,36.9758065 L8.67933704,36.9758065 C8.96332812,36.9758065 9.19354839,37.2189626 9.19354839,37.5 C9.19354839,37.7895041 8.968085,38.0241935 8.67933704,38.0241935 L5.51421135,38.0241935 Z M5.82600755,33.01406 C5.54551286,32.9696342 5.356165,32.6934572 5.40012893,32.4158799 C5.44541734,32.1299401 5.70481842,31.9334103 5.99001141,31.9785805 L9.11616916,32.4737152 C9.39666385,32.518141 9.5860117,32.7943181 9.54204777,33.0718953 C9.49675936,33.3578352 9.2373583,33.554365 8.95216529,33.5091948 L5.82600755,33.01406 Z M6.91772255,28.1143854 C6.64763099,28.0266274 6.5038179,27.72423 6.59066323,27.4569477 C6.68012491,27.181613 6.96707634,27.0280819 7.24169199,27.1173101 L10.2519054,28.0953876 C10.521997,28.1831457 10.6658101,28.4855429 10.5789647,28.7528255 C10.4895031,29.0281602 10.2025516,29.181691 9.92793598,29.092463 L6.91772255,28.1143854 Z M8.76247474,23.4458157 C8.50943683,23.3168864 8.41469966,22.9957149 8.54228797,22.7453089 C8.67372007,22.4873587 8.98115619,22.3806071 9.23843252,22.5116959 L12.0585802,23.9486329 C12.3116181,24.0775623 12.4063552,24.3987338 12.2787669,24.64914 C12.1473348,24.90709 11.8398987,25.0138416 11.5826224,24.8827527 L8.76247474,23.4458157 Z M11.3148402,19.1233066 C11.0850865,18.9563809 11.0417581,18.6243433 11.2069477,18.3969793 C11.3771139,18.1627656 11.6974646,18.1054219 11.9310666,18.2751437 L14.4917071,20.1355579 C14.7214607,20.3024836 14.7647892,20.6345212 14.5995996,20.8618852 C14.4294334,21.0960989 14.1090827,21.1534427 13.8754806,20.9837208 L11.3148402,19.1233066 Z M14.5119711,15.2532928 C14.3111591,15.0524807 14.3203062,14.717753 14.5190296,14.5190296 C14.7237399,14.3143193 15.0491171,14.3077955 15.2532928,14.5119711 L17.4913746,16.750053 C17.6921866,16.950865 17.6830395,17.2855927 17.4843161,17.4843161 C17.2796058,17.6890264 16.9542286,17.6955503 16.750053,17.4913746 L14.5119711,15.2532928 Z M18.2751437,11.9310666 C18.1082179,11.701313 18.1696153,11.3721373 18.3969793,11.2069477 C18.631193,11.0367814 18.9535848,11.0812381 19.1233066,11.3148402 L20.9837208,13.8754806 C21.1506467,14.1052343 21.0892491,14.43441 20.8618852,14.5995996 C20.6276715,14.7697658 20.3052797,14.7253091 20.1355579,14.4917071 L18.2751437,11.9310666 Z M22.5116959,9.23843252 C22.3827667,8.98539461 22.4949026,8.66987626 22.7453089,8.54228797 C23.0032588,8.41085586 23.3147269,8.50519841 23.4458157,8.76247474 L24.8827527,11.5826224 C25.0116819,11.8356603 24.899546,12.1511786 24.64914,12.2787669 C24.3911898,12.410199 24.0797217,12.3158565 23.9486329,12.0585802 L22.5116959,9.23843252 Z M27.1173101,7.24169199 C27.029552,6.97160042 27.1896652,6.67750855 27.4569477,6.59066323 C27.7322825,6.50120152 28.0251574,6.64310692 28.1143854,6.91772255 L29.092463,9.92793598 C29.1802212,10.1980275 29.0201078,10.4921194 28.7528255,10.5789647 C28.4774907,10.6684264 28.1846158,10.526521 28.0953876,10.2519054 L27.1173101,7.24169199 Z M31.9785805,5.99001141 C31.9341544,5.70951675 32.1383026,5.44409285 32.4158799,5.40012893 C32.7018197,5.35484051 32.96889,5.54081453 33.01406,5.82600755 L33.5091948,8.95216529 C33.5536208,9.23265998 33.3494728,9.49808385 33.0718953,9.54204777 C32.7859555,9.58733619 32.5188852,9.40136217 32.4737152,9.11616916 L31.9785805,5.99001141 Z"/>
  </g>
</svg>
